M48
; DRILL file {KiCad 9.0.1} date 2026-04-05T05:19:04-0500
; FORMAT={-:-/ absolute / metric / decimal}
; #@! TF.CreationDate,2026-04-05T05:19:04-05:00
; #@! TF.GenerationSoftware,Kicad,Pcbnew,9.0.1
; #@! TF.FileFunction,Plated,1,2,PTH
FMAT,2
METRIC
; #@! TA.AperFunction,Plated,PTH,ViaDrill
T1C0.300
; #@! TA.AperFunction,Plated,PTH,ComponentDrill
T2C0.800
; #@! TA.AperFunction,Plated,PTH,ComponentDrill
T3C1.000
%
G90
G05
T1
X28.69Y-66.7
T2
X36.86Y-29.94
X36.86Y-32.48
X36.86Y-35.02
X36.86Y-37.56
X36.86Y-40.1
X36.86Y-42.64
X36.86Y-45.18
X36.86Y-47.72
X36.86Y-50.26
X36.86Y-52.8
X36.86Y-55.34
X36.86Y-57.88
X36.86Y-60.42
X36.86Y-62.96
X36.86Y-65.5
X36.86Y-68.04
X36.86Y-70.58
X36.86Y-73.12
X36.86Y-75.66
X36.86Y-78.2
X39.46Y-30.0
X39.46Y-32.54
X39.46Y-35.08
X39.46Y-37.62
X39.46Y-40.16
X39.46Y-42.7
X39.46Y-45.24
X39.46Y-47.78
X39.46Y-50.32
X39.46Y-52.86
X39.46Y-55.4
X39.46Y-57.94
X39.46Y-60.48
X39.46Y-63.02
X39.46Y-65.56
X39.46Y-68.1
X39.46Y-70.64
X39.46Y-73.18
X39.46Y-75.72
X39.46Y-78.26
X52.1Y-29.94
X52.1Y-32.48
X52.1Y-35.02
X52.1Y-37.56
X52.1Y-40.1
X52.1Y-42.64
X52.1Y-45.18
X52.1Y-47.72
X52.1Y-50.26
X52.1Y-52.8
X52.1Y-55.34
X52.1Y-57.88
X52.1Y-60.42
X52.1Y-62.96
X52.1Y-65.5
X52.1Y-68.04
X52.1Y-70.58
X52.1Y-73.12
X52.1Y-75.66
X52.1Y-78.2
X54.7Y-30.0
X54.7Y-32.54
X54.7Y-35.08
X54.7Y-37.62
X54.7Y-40.16
X54.7Y-42.7
X54.7Y-45.24
X54.7Y-47.78
X54.7Y-50.32
X54.7Y-52.86
X54.7Y-55.4
X54.7Y-57.94
X54.7Y-60.48
X54.7Y-63.02
X54.7Y-65.56
X54.7Y-68.1
X54.7Y-70.64
X54.7Y-73.18
X54.7Y-75.72
X54.7Y-78.26
T3
X28.69Y-81.715
X31.23Y-81.715
X33.77Y-81.715
X36.31Y-81.715
M30
