%TF.GenerationSoftware,KiCad,Pcbnew,9.0.1*%
%TF.CreationDate,2026-04-05T05:19:01-05:00*%
%TF.ProjectId,Kaypro10VideoShim,4b617970-726f-4313-9056-6964656f5368,rev?*%
%TF.SameCoordinates,Original*%
%TF.FileFunction,Copper,L2,Bot*%
%TF.FilePolarity,Positive*%
%FSLAX46Y46*%
G04 Gerber Fmt 4.6, Leading zero omitted, Abs format (unit mm)*
G04 Created by KiCad (PCBNEW 9.0.1) date 2026-04-05 05:19:01*
%MOMM*%
%LPD*%
G01*
G04 APERTURE LIST*
G04 Aperture macros list*
%AMRoundRect*
0 Rectangle with rounded corners*
0 $1 Rounding radius*
0 $2 $3 $4 $5 $6 $7 $8 $9 X,Y pos of 4 corners*
0 Add a 4 corners polygon primitive as box body*
4,1,4,$2,$3,$4,$5,$6,$7,$8,$9,$2,$3,0*
0 Add four circle primitives for the rounded corners*
1,1,$1+$1,$2,$3*
1,1,$1+$1,$4,$5*
1,1,$1+$1,$6,$7*
1,1,$1+$1,$8,$9*
0 Add four rect primitives between the rounded corners*
20,1,$1+$1,$2,$3,$4,$5,0*
20,1,$1+$1,$4,$5,$6,$7,0*
20,1,$1+$1,$6,$7,$8,$9,0*
20,1,$1+$1,$8,$9,$2,$3,0*%
G04 Aperture macros list end*
%TA.AperFunction,ComponentPad*%
%ADD10RoundRect,0.250000X0.550000X0.550000X-0.550000X0.550000X-0.550000X-0.550000X0.550000X-0.550000X0*%
%TD*%
%TA.AperFunction,ComponentPad*%
%ADD11C,1.600000*%
%TD*%
%TA.AperFunction,ComponentPad*%
%ADD12R,1.700000X1.700000*%
%TD*%
%TA.AperFunction,ComponentPad*%
%ADD13C,1.700000*%
%TD*%
%TA.AperFunction,ViaPad*%
%ADD14C,0.600000*%
%TD*%
%TA.AperFunction,Conductor*%
%ADD15C,0.500000*%
%TD*%
G04 APERTURE END LIST*
D10*
%TO.P,U2,1,A11*%
%TO.N,Net-(U1-A11)*%
X52100000Y-78200000D03*
D11*
%TO.P,U2,2,A12*%
%TO.N,Net-(U1-A12)*%
X52100000Y-75660000D03*
%TO.P,U2,3,A13*%
%TO.N,Net-(U1-A13)*%
X52100000Y-73120000D03*
%TO.P,U2,4,A14*%
%TO.N,Net-(U1-A14)*%
X52100000Y-70580000D03*
%TO.P,U2,5,A15*%
%TO.N,Net-(U1-A15)*%
X52100000Y-68040000D03*
%TO.P,U2,6,~{CLK}*%
%TO.N,Net-(U1-~{CLK})*%
X52100000Y-65500000D03*
%TO.P,U2,7,D4*%
%TO.N,Net-(U1-D4)*%
X52100000Y-62960000D03*
%TO.P,U2,8,D3*%
%TO.N,Net-(U1-D3)*%
X52100000Y-60420000D03*
%TO.P,U2,9,D5*%
%TO.N,Net-(U1-D5)*%
X52100000Y-57880000D03*
%TO.P,U2,10,D6*%
%TO.N,Net-(U1-D6)*%
X52100000Y-55340000D03*
%TO.P,U2,11,VCC*%
%TO.N,Net-(U1-VCC)*%
X52100000Y-52800000D03*
%TO.P,U2,12,D2*%
%TO.N,Net-(U1-D2)*%
X52100000Y-50260000D03*
%TO.P,U2,13,D7*%
%TO.N,Net-(U1-D7)*%
X52100000Y-47720000D03*
%TO.P,U2,14,D0*%
%TO.N,Net-(U1-D0)*%
X52100000Y-45180000D03*
%TO.P,U2,15,D1*%
%TO.N,Net-(U1-D1)*%
X52100000Y-42640000D03*
%TO.P,U2,16,~{INT}*%
%TO.N,Net-(U1-~{INT})*%
X52100000Y-40100000D03*
%TO.P,U2,17,~{NMI}*%
%TO.N,Net-(U1-~{NMI})*%
X52100000Y-37560000D03*
%TO.P,U2,18,~{HALT}*%
%TO.N,Net-(J1-Pin_4)*%
X52100000Y-35020000D03*
%TO.P,U2,19,~{MREQ}*%
%TO.N,Net-(U1-~{MREQ})*%
X52100000Y-32480000D03*
%TO.P,U2,20,~{IORQ}*%
%TO.N,Net-(U1-~{IORQ})*%
X52100000Y-29940000D03*
%TO.P,U2,21,~{RD}*%
%TO.N,Net-(J1-Pin_3)*%
X36860000Y-29940000D03*
%TO.P,U2,22,~{WR}*%
%TO.N,Net-(U1-~{WR})*%
X36860000Y-32480000D03*
%TO.P,U2,23,~{BUSACK}*%
%TO.N,Net-(U1-~{BUSACK})*%
X36860000Y-35020000D03*
%TO.P,U2,24,~{WAIT}*%
%TO.N,Net-(U1-~{WAIT})*%
X36860000Y-37560000D03*
%TO.P,U2,25,~{BUSRQ}*%
%TO.N,Net-(U1-~{BUSRQ})*%
X36860000Y-40100000D03*
%TO.P,U2,26,~{RESET}*%
%TO.N,Net-(U1-~{RESET})*%
X36860000Y-42640000D03*
%TO.P,U2,27,~{M1}*%
%TO.N,Net-(U1-~{M1})*%
X36860000Y-45180000D03*
%TO.P,U2,28,~{RFSH}*%
%TO.N,Net-(U1-~{RFSH})*%
X36860000Y-47720000D03*
%TO.P,U2,29,GND*%
%TO.N,Net-(U1-GND)*%
X36860000Y-50260000D03*
%TO.P,U2,30,A0*%
%TO.N,Net-(U1-A0)*%
X36860000Y-52800000D03*
%TO.P,U2,31,A1*%
%TO.N,Net-(U1-A1)*%
X36860000Y-55340000D03*
%TO.P,U2,32,A2*%
%TO.N,Net-(U1-A2)*%
X36860000Y-57880000D03*
%TO.P,U2,33,A3*%
%TO.N,Net-(U1-A3)*%
X36860000Y-60420000D03*
%TO.P,U2,34,A4*%
%TO.N,Net-(U1-A4)*%
X36860000Y-62960000D03*
%TO.P,U2,35,A5*%
%TO.N,Net-(U1-A5)*%
X36860000Y-65500000D03*
%TO.P,U2,36,A6*%
%TO.N,Net-(U1-A6)*%
X36860000Y-68040000D03*
%TO.P,U2,37,A7*%
%TO.N,Net-(U1-A7)*%
X36860000Y-70580000D03*
%TO.P,U2,38,A8*%
%TO.N,Net-(U1-A8)*%
X36860000Y-73120000D03*
%TO.P,U2,39,A9*%
%TO.N,Net-(J1-Pin_2)*%
X36860000Y-75660000D03*
%TO.P,U2,40,A10*%
%TO.N,Net-(J1-Pin_1)*%
X36860000Y-78200000D03*
%TD*%
D10*
%TO.P,U1,1,A11*%
%TO.N,Net-(U1-A11)*%
X54700000Y-78260000D03*
D11*
%TO.P,U1,2,A12*%
%TO.N,Net-(U1-A12)*%
X54700000Y-75720000D03*
%TO.P,U1,3,A13*%
%TO.N,Net-(U1-A13)*%
X54700000Y-73180000D03*
%TO.P,U1,4,A14*%
%TO.N,Net-(U1-A14)*%
X54700000Y-70640000D03*
%TO.P,U1,5,A15*%
%TO.N,Net-(U1-A15)*%
X54700000Y-68100000D03*
%TO.P,U1,6,~{CLK}*%
%TO.N,Net-(U1-~{CLK})*%
X54700000Y-65560000D03*
%TO.P,U1,7,D4*%
%TO.N,Net-(U1-D4)*%
X54700000Y-63020000D03*
%TO.P,U1,8,D3*%
%TO.N,Net-(U1-D3)*%
X54700000Y-60480000D03*
%TO.P,U1,9,D5*%
%TO.N,Net-(U1-D5)*%
X54700000Y-57940000D03*
%TO.P,U1,10,D6*%
%TO.N,Net-(U1-D6)*%
X54700000Y-55400000D03*
%TO.P,U1,11,VCC*%
%TO.N,Net-(U1-VCC)*%
X54700000Y-52860000D03*
%TO.P,U1,12,D2*%
%TO.N,Net-(U1-D2)*%
X54700000Y-50320000D03*
%TO.P,U1,13,D7*%
%TO.N,Net-(U1-D7)*%
X54700000Y-47780000D03*
%TO.P,U1,14,D0*%
%TO.N,Net-(U1-D0)*%
X54700000Y-45240000D03*
%TO.P,U1,15,D1*%
%TO.N,Net-(U1-D1)*%
X54700000Y-42700000D03*
%TO.P,U1,16,~{INT}*%
%TO.N,Net-(U1-~{INT})*%
X54700000Y-40160000D03*
%TO.P,U1,17,~{NMI}*%
%TO.N,Net-(U1-~{NMI})*%
X54700000Y-37620000D03*
%TO.P,U1,18,~{HALT}*%
%TO.N,Net-(J1-Pin_4)*%
X54700000Y-35080000D03*
%TO.P,U1,19,~{MREQ}*%
%TO.N,Net-(U1-~{MREQ})*%
X54700000Y-32540000D03*
%TO.P,U1,20,~{IORQ}*%
%TO.N,Net-(U1-~{IORQ})*%
X54700000Y-30000000D03*
%TO.P,U1,21,~{RD}*%
%TO.N,Net-(J1-Pin_3)*%
X39460000Y-30000000D03*
%TO.P,U1,22,~{WR}*%
%TO.N,Net-(U1-~{WR})*%
X39460000Y-32540000D03*
%TO.P,U1,23,~{BUSACK}*%
%TO.N,Net-(U1-~{BUSACK})*%
X39460000Y-35080000D03*
%TO.P,U1,24,~{WAIT}*%
%TO.N,Net-(U1-~{WAIT})*%
X39460000Y-37620000D03*
%TO.P,U1,25,~{BUSRQ}*%
%TO.N,Net-(U1-~{BUSRQ})*%
X39460000Y-40160000D03*
%TO.P,U1,26,~{RESET}*%
%TO.N,Net-(U1-~{RESET})*%
X39460000Y-42700000D03*
%TO.P,U1,27,~{M1}*%
%TO.N,Net-(U1-~{M1})*%
X39460000Y-45240000D03*
%TO.P,U1,28,~{RFSH}*%
%TO.N,Net-(U1-~{RFSH})*%
X39460000Y-47780000D03*
%TO.P,U1,29,GND*%
%TO.N,Net-(U1-GND)*%
X39460000Y-50320000D03*
%TO.P,U1,30,A0*%
%TO.N,Net-(U1-A0)*%
X39460000Y-52860000D03*
%TO.P,U1,31,A1*%
%TO.N,Net-(U1-A1)*%
X39460000Y-55400000D03*
%TO.P,U1,32,A2*%
%TO.N,Net-(U1-A2)*%
X39460000Y-57940000D03*
%TO.P,U1,33,A3*%
%TO.N,Net-(U1-A3)*%
X39460000Y-60480000D03*
%TO.P,U1,34,A4*%
%TO.N,Net-(U1-A4)*%
X39460000Y-63020000D03*
%TO.P,U1,35,A5*%
%TO.N,Net-(U1-A5)*%
X39460000Y-65560000D03*
%TO.P,U1,36,A6*%
%TO.N,Net-(U1-A6)*%
X39460000Y-68100000D03*
%TO.P,U1,37,A7*%
%TO.N,Net-(U1-A7)*%
X39460000Y-70640000D03*
%TO.P,U1,38,A8*%
%TO.N,Net-(U1-A8)*%
X39460000Y-73180000D03*
%TO.P,U1,39,A9*%
%TO.N,Net-(J1-Pin_2)*%
X39460000Y-75720000D03*
%TO.P,U1,40,A10*%
%TO.N,Net-(J1-Pin_1)*%
X39460000Y-78260000D03*
%TD*%
D12*
%TO.P,J1,1,Pin_1*%
%TO.N,Net-(J1-Pin_1)*%
X36310000Y-81715000D03*
D13*
%TO.P,J1,2,Pin_2*%
%TO.N,Net-(J1-Pin_2)*%
X33770000Y-81715000D03*
%TO.P,J1,3,Pin_3*%
%TO.N,Net-(J1-Pin_3)*%
X31230000Y-81715000D03*
%TO.P,J1,4,Pin_4*%
%TO.N,Net-(J1-Pin_4)*%
X28690000Y-81715000D03*
%TD*%
D14*
%TO.N,Net-(J1-Pin_4)*%
X28690000Y-66700000D03*
%TD*%
D15*
%TO.N,Net-(J1-Pin_4)*%
X41600000Y-66800000D02*
X41600000Y-45520000D01*
X41551000Y-66849000D02*
X41600000Y-66800000D01*
X38843818Y-66751000D02*
X38941818Y-66849000D01*
X28741000Y-66751000D02*
X38843818Y-66751000D01*
X38941818Y-66849000D02*
X41551000Y-66849000D01*
X28690000Y-66700000D02*
X28741000Y-66751000D01*
X41600000Y-45520000D02*
X52100000Y-35020000D01*
%TD*%
%TA.AperFunction,NonConductor*%
G36*
X53782198Y-28806738D02*
G01*
X53804287Y-28808318D01*
X53815070Y-28816390D01*
X53827992Y-28820185D01*
X53842491Y-28836918D01*
X53860220Y-28850190D01*
X53864927Y-28862810D01*
X53873747Y-28872989D01*
X53876898Y-28894906D01*
X53884637Y-28915654D01*
X53881774Y-28928814D01*
X53883691Y-28942147D01*
X53874491Y-28962290D01*
X53869785Y-28983927D01*
X53856516Y-29001652D01*
X53854666Y-29005703D01*
X53848634Y-29012181D01*
X53708032Y-29152782D01*
X53708028Y-29152786D01*
X53587713Y-29318388D01*
X53525769Y-29439959D01*
X53477795Y-29490754D01*
X53409974Y-29507549D01*
X53343839Y-29485011D01*
X53304801Y-29439959D01*
X53212287Y-29258390D01*
X53212285Y-29258387D01*
X53212284Y-29258385D01*
X53091971Y-29092786D01*
X53011366Y-29012181D01*
X52977881Y-28950858D01*
X52982865Y-28881166D01*
X53024737Y-28825233D01*
X53090201Y-28800816D01*
X53099047Y-28800500D01*
X53760953Y-28800500D01*
X53782198Y-28806738D01*
G37*
%TD.AperFunction*%
%TA.AperFunction,NonConductor*%
G36*
X38587992Y-28820185D02*
G01*
X38633747Y-28872989D01*
X38643691Y-28942147D01*
X38614666Y-29005703D01*
X38608634Y-29012181D01*
X38468032Y-29152782D01*
X38468028Y-29152786D01*
X38347713Y-29318388D01*
X38285769Y-29439959D01*
X38237795Y-29490754D01*
X38169974Y-29507549D01*
X38103839Y-29485011D01*
X38064801Y-29439959D01*
X37972287Y-29258390D01*
X37972285Y-29258387D01*
X37972284Y-29258385D01*
X37851971Y-29092786D01*
X37771366Y-29012181D01*
X37737881Y-28950858D01*
X37742865Y-28881166D01*
X37784737Y-28825233D01*
X37850201Y-28800816D01*
X37859047Y-28800500D01*
X38520953Y-28800500D01*
X38587992Y-28820185D01*
G37*
%TD.AperFunction*%
%TA.AperFunction,NonConductor*%
G36*
X55818834Y-30822865D02*
G01*
X55874767Y-30864737D01*
X55899184Y-30930201D01*
X55899500Y-30939047D01*
X55899500Y-31600953D01*
X55879815Y-31667992D01*
X55827011Y-31713747D01*
X55757853Y-31723691D01*
X55694297Y-31694666D01*
X55687819Y-31688634D01*
X55547213Y-31548028D01*
X55381614Y-31427715D01*
X55375006Y-31424348D01*
X55288917Y-31380483D01*
X55238123Y-31332511D01*
X55221328Y-31264690D01*
X55243865Y-31198555D01*
X55288917Y-31159516D01*
X55381610Y-31112287D01*
X55464198Y-31052284D01*
X55547213Y-30991971D01*
X55547215Y-30991968D01*
X55547219Y-30991966D01*
X55687819Y-30851366D01*
X55749142Y-30817881D01*
X55818834Y-30822865D01*
G37*
%TD.AperFunction*%
%TA.AperFunction,NonConductor*%
G36*
X53401941Y-30436511D02*
G01*
X53414521Y-30435972D01*
X53434386Y-30447567D01*
X53456159Y-30454987D01*
X53465433Y-30465689D01*
X53474863Y-30471194D01*
X53495199Y-30500041D01*
X53587715Y-30681614D01*
X53708028Y-30847213D01*
X53852786Y-30991971D01*
X53935806Y-31052287D01*
X54018390Y-31112287D01*
X54083025Y-31145220D01*
X54111080Y-31159515D01*
X54161876Y-31207490D01*
X54178671Y-31275311D01*
X54156134Y-31341446D01*
X54111080Y-31380485D01*
X54018386Y-31427715D01*
X53852786Y-31548028D01*
X53708028Y-31692786D01*
X53587713Y-31858388D01*
X53525769Y-31979959D01*
X53477795Y-32030754D01*
X53409974Y-32047549D01*
X53343839Y-32025011D01*
X53304801Y-31979959D01*
X53212287Y-31798390D01*
X53212285Y-31798387D01*
X53212284Y-31798385D01*
X53091971Y-31632786D01*
X52947213Y-31488028D01*
X52781614Y-31367715D01*
X52712522Y-31332511D01*
X52688917Y-31320483D01*
X52638123Y-31272511D01*
X52621328Y-31204690D01*
X52643865Y-31138555D01*
X52688917Y-31099516D01*
X52781610Y-31052287D01*
X52864634Y-30991967D01*
X52947213Y-30931971D01*
X52947215Y-30931968D01*
X52947219Y-30931966D01*
X53091966Y-30787219D01*
X53091968Y-30787215D01*
X53091971Y-30787213D01*
X53212284Y-30621614D01*
X53212285Y-30621613D01*
X53212287Y-30621610D01*
X53274230Y-30500039D01*
X53282874Y-30490887D01*
X53287609Y-30479221D01*
X53306408Y-30465968D01*
X53322203Y-30449245D01*
X53334425Y-30446218D01*
X53344716Y-30438964D01*
X53367697Y-30437978D01*
X53390024Y-30432450D01*
X53401941Y-30436511D01*
G37*
%TD.AperFunction*%
%TA.AperFunction,NonConductor*%
G36*
X38216159Y-30454987D02*
G01*
X38255199Y-30500041D01*
X38347715Y-30681614D01*
X38468028Y-30847213D01*
X38612786Y-30991971D01*
X38695806Y-31052287D01*
X38778390Y-31112287D01*
X38843025Y-31145220D01*
X38871080Y-31159515D01*
X38921876Y-31207490D01*
X38938671Y-31275311D01*
X38916134Y-31341446D01*
X38871080Y-31380485D01*
X38778386Y-31427715D01*
X38612786Y-31548028D01*
X38468028Y-31692786D01*
X38347713Y-31858388D01*
X38285769Y-31979959D01*
X38237795Y-32030754D01*
X38169974Y-32047549D01*
X38103839Y-32025011D01*
X38064801Y-31979959D01*
X37972287Y-31798390D01*
X37972285Y-31798387D01*
X37972284Y-31798385D01*
X37851971Y-31632786D01*
X37707213Y-31488028D01*
X37541614Y-31367715D01*
X37472522Y-31332511D01*
X37448917Y-31320483D01*
X37398123Y-31272511D01*
X37381328Y-31204690D01*
X37403865Y-31138555D01*
X37448917Y-31099516D01*
X37541610Y-31052287D01*
X37624634Y-30991967D01*
X37707213Y-30931971D01*
X37707215Y-30931968D01*
X37707219Y-30931966D01*
X37851966Y-30787219D01*
X37851968Y-30787215D01*
X37851971Y-30787213D01*
X37972284Y-30621614D01*
X37972285Y-30621613D01*
X37972287Y-30621610D01*
X38034230Y-30500039D01*
X38082203Y-30449245D01*
X38150024Y-30432450D01*
X38216159Y-30454987D01*
G37*
%TD.AperFunction*%
%TA.AperFunction,NonConductor*%
G36*
X55818834Y-33362865D02*
G01*
X55874767Y-33404737D01*
X55899184Y-33470201D01*
X55899500Y-33479047D01*
X55899500Y-34140953D01*
X55879815Y-34207992D01*
X55827011Y-34253747D01*
X55757853Y-34263691D01*
X55694297Y-34234666D01*
X55687819Y-34228634D01*
X55547213Y-34088028D01*
X55381614Y-33967715D01*
X55375006Y-33964348D01*
X55288917Y-33920483D01*
X55238123Y-33872511D01*
X55221328Y-33804690D01*
X55243865Y-33738555D01*
X55288917Y-33699516D01*
X55381610Y-33652287D01*
X55464198Y-33592284D01*
X55547213Y-33531971D01*
X55547215Y-33531968D01*
X55547219Y-33531966D01*
X55687819Y-33391366D01*
X55749142Y-33357881D01*
X55818834Y-33362865D01*
G37*
%TD.AperFunction*%
%TA.AperFunction,NonConductor*%
G36*
X53401941Y-32976511D02*
G01*
X53414521Y-32975972D01*
X53434386Y-32987567D01*
X53456159Y-32994987D01*
X53465433Y-33005689D01*
X53474863Y-33011194D01*
X53495199Y-33040041D01*
X53587715Y-33221614D01*
X53708028Y-33387213D01*
X53852786Y-33531971D01*
X53935806Y-33592287D01*
X54018390Y-33652287D01*
X54083025Y-33685220D01*
X54111080Y-33699515D01*
X54161876Y-33747490D01*
X54178671Y-33815311D01*
X54156134Y-33881446D01*
X54111080Y-33920485D01*
X54018386Y-33967715D01*
X53852786Y-34088028D01*
X53708028Y-34232786D01*
X53587713Y-34398388D01*
X53525769Y-34519959D01*
X53477795Y-34570754D01*
X53409974Y-34587549D01*
X53343839Y-34565011D01*
X53304801Y-34519959D01*
X53212287Y-34338390D01*
X53212285Y-34338387D01*
X53212284Y-34338385D01*
X53091971Y-34172786D01*
X52947213Y-34028028D01*
X52781614Y-33907715D01*
X52712522Y-33872511D01*
X52688917Y-33860483D01*
X52638123Y-33812511D01*
X52621328Y-33744690D01*
X52643865Y-33678555D01*
X52688917Y-33639516D01*
X52781610Y-33592287D01*
X52864634Y-33531967D01*
X52947213Y-33471971D01*
X52947215Y-33471968D01*
X52947219Y-33471966D01*
X53091966Y-33327219D01*
X53091968Y-33327215D01*
X53091971Y-33327213D01*
X53212284Y-33161614D01*
X53212285Y-33161613D01*
X53212287Y-33161610D01*
X53274230Y-33040039D01*
X53282874Y-33030887D01*
X53287609Y-33019221D01*
X53306408Y-33005968D01*
X53322203Y-32989245D01*
X53334425Y-32986218D01*
X53344716Y-32978964D01*
X53367697Y-32977978D01*
X53390024Y-32972450D01*
X53401941Y-32976511D01*
G37*
%TD.AperFunction*%
%TA.AperFunction,NonConductor*%
G36*
X38216159Y-32994987D02*
G01*
X38255199Y-33040041D01*
X38347715Y-33221614D01*
X38468028Y-33387213D01*
X38612786Y-33531971D01*
X38695806Y-33592287D01*
X38778390Y-33652287D01*
X38843025Y-33685220D01*
X38871080Y-33699515D01*
X38921876Y-33747490D01*
X38938671Y-33815311D01*
X38916134Y-33881446D01*
X38871080Y-33920485D01*
X38778386Y-33967715D01*
X38612786Y-34088028D01*
X38468028Y-34232786D01*
X38347713Y-34398388D01*
X38285769Y-34519959D01*
X38237795Y-34570754D01*
X38169974Y-34587549D01*
X38103839Y-34565011D01*
X38064801Y-34519959D01*
X37972287Y-34338390D01*
X37972285Y-34338387D01*
X37972284Y-34338385D01*
X37851971Y-34172786D01*
X37707213Y-34028028D01*
X37541614Y-33907715D01*
X37472522Y-33872511D01*
X37448917Y-33860483D01*
X37398123Y-33812511D01*
X37381328Y-33744690D01*
X37403865Y-33678555D01*
X37448917Y-33639516D01*
X37541610Y-33592287D01*
X37624634Y-33531967D01*
X37707213Y-33471971D01*
X37707215Y-33471968D01*
X37707219Y-33471966D01*
X37851966Y-33327219D01*
X37851968Y-33327215D01*
X37851971Y-33327213D01*
X37972284Y-33161614D01*
X37972285Y-33161613D01*
X37972287Y-33161610D01*
X38034230Y-33040039D01*
X38082203Y-32989245D01*
X38150024Y-32972450D01*
X38216159Y-32994987D01*
G37*
%TD.AperFunction*%
%TA.AperFunction,NonConductor*%
G36*
X55818834Y-35902865D02*
G01*
X55874767Y-35944737D01*
X55899184Y-36010201D01*
X55899500Y-36019047D01*
X55899500Y-36680953D01*
X55879815Y-36747992D01*
X55827011Y-36793747D01*
X55757853Y-36803691D01*
X55694297Y-36774666D01*
X55687819Y-36768634D01*
X55547213Y-36628028D01*
X55381614Y-36507715D01*
X55375006Y-36504348D01*
X55288917Y-36460483D01*
X55238123Y-36412511D01*
X55221328Y-36344690D01*
X55243865Y-36278555D01*
X55288917Y-36239516D01*
X55381610Y-36192287D01*
X55464198Y-36132284D01*
X55547213Y-36071971D01*
X55547215Y-36071968D01*
X55547219Y-36071966D01*
X55687819Y-35931366D01*
X55749142Y-35897881D01*
X55818834Y-35902865D01*
G37*
%TD.AperFunction*%
%TA.AperFunction,NonConductor*%
G36*
X53401941Y-35516511D02*
G01*
X53414521Y-35515972D01*
X53434386Y-35527567D01*
X53456159Y-35534987D01*
X53465433Y-35545689D01*
X53474863Y-35551194D01*
X53495199Y-35580041D01*
X53587715Y-35761614D01*
X53708028Y-35927213D01*
X53852786Y-36071971D01*
X53935806Y-36132287D01*
X54018390Y-36192287D01*
X54083025Y-36225220D01*
X54111080Y-36239515D01*
X54161876Y-36287490D01*
X54178671Y-36355311D01*
X54156134Y-36421446D01*
X54111080Y-36460485D01*
X54018386Y-36507715D01*
X53852786Y-36628028D01*
X53708028Y-36772786D01*
X53587713Y-36938388D01*
X53525769Y-37059959D01*
X53477795Y-37110754D01*
X53409974Y-37127549D01*
X53343839Y-37105011D01*
X53304801Y-37059959D01*
X53212287Y-36878390D01*
X53212285Y-36878387D01*
X53212284Y-36878385D01*
X53091971Y-36712786D01*
X52947213Y-36568028D01*
X52781614Y-36447715D01*
X52712522Y-36412511D01*
X52688917Y-36400483D01*
X52638123Y-36352511D01*
X52621328Y-36284690D01*
X52643865Y-36218555D01*
X52688917Y-36179516D01*
X52781610Y-36132287D01*
X52864634Y-36071967D01*
X52947213Y-36011971D01*
X52947215Y-36011968D01*
X52947219Y-36011966D01*
X53091966Y-35867219D01*
X53091968Y-35867215D01*
X53091971Y-35867213D01*
X53212284Y-35701614D01*
X53212285Y-35701613D01*
X53212287Y-35701610D01*
X53274230Y-35580039D01*
X53282874Y-35570887D01*
X53287609Y-35559221D01*
X53306408Y-35545968D01*
X53322203Y-35529245D01*
X53334425Y-35526218D01*
X53344716Y-35518964D01*
X53367697Y-35517978D01*
X53390024Y-35512450D01*
X53401941Y-35516511D01*
G37*
%TD.AperFunction*%
%TA.AperFunction,NonConductor*%
G36*
X38216159Y-35534987D02*
G01*
X38255199Y-35580041D01*
X38347715Y-35761614D01*
X38468028Y-35927213D01*
X38612786Y-36071971D01*
X38695806Y-36132287D01*
X38778390Y-36192287D01*
X38843025Y-36225220D01*
X38871080Y-36239515D01*
X38921876Y-36287490D01*
X38938671Y-36355311D01*
X38916134Y-36421446D01*
X38871080Y-36460485D01*
X38778386Y-36507715D01*
X38612786Y-36628028D01*
X38468028Y-36772786D01*
X38347713Y-36938388D01*
X38285769Y-37059959D01*
X38237795Y-37110754D01*
X38169974Y-37127549D01*
X38103839Y-37105011D01*
X38064801Y-37059959D01*
X37972287Y-36878390D01*
X37972285Y-36878387D01*
X37972284Y-36878385D01*
X37851971Y-36712786D01*
X37707213Y-36568028D01*
X37541614Y-36447715D01*
X37472522Y-36412511D01*
X37448917Y-36400483D01*
X37398123Y-36352511D01*
X37381328Y-36284690D01*
X37403865Y-36218555D01*
X37448917Y-36179516D01*
X37541610Y-36132287D01*
X37624634Y-36071967D01*
X37707213Y-36011971D01*
X37707215Y-36011968D01*
X37707219Y-36011966D01*
X37851966Y-35867219D01*
X37851968Y-35867215D01*
X37851971Y-35867213D01*
X37972284Y-35701614D01*
X37972285Y-35701613D01*
X37972287Y-35701610D01*
X38034230Y-35580039D01*
X38082203Y-35529245D01*
X38150024Y-35512450D01*
X38216159Y-35534987D01*
G37*
%TD.AperFunction*%
%TA.AperFunction,NonConductor*%
G36*
X55818834Y-38442865D02*
G01*
X55874767Y-38484737D01*
X55899184Y-38550201D01*
X55899500Y-38559047D01*
X55899500Y-39220953D01*
X55879815Y-39287992D01*
X55827011Y-39333747D01*
X55757853Y-39343691D01*
X55694297Y-39314666D01*
X55687819Y-39308634D01*
X55547213Y-39168028D01*
X55381614Y-39047715D01*
X55375006Y-39044348D01*
X55288917Y-39000483D01*
X55238123Y-38952511D01*
X55221328Y-38884690D01*
X55243865Y-38818555D01*
X55288917Y-38779516D01*
X55381610Y-38732287D01*
X55464198Y-38672284D01*
X55547213Y-38611971D01*
X55547215Y-38611968D01*
X55547219Y-38611966D01*
X55687819Y-38471366D01*
X55749142Y-38437881D01*
X55818834Y-38442865D01*
G37*
%TD.AperFunction*%
%TA.AperFunction,NonConductor*%
G36*
X53401941Y-38056511D02*
G01*
X53414521Y-38055972D01*
X53434386Y-38067567D01*
X53456159Y-38074987D01*
X53465433Y-38085689D01*
X53474863Y-38091194D01*
X53495199Y-38120041D01*
X53587715Y-38301614D01*
X53708028Y-38467213D01*
X53852786Y-38611971D01*
X53935806Y-38672287D01*
X54018390Y-38732287D01*
X54083025Y-38765220D01*
X54111080Y-38779515D01*
X54161876Y-38827490D01*
X54178671Y-38895311D01*
X54156134Y-38961446D01*
X54111080Y-39000485D01*
X54018386Y-39047715D01*
X53852786Y-39168028D01*
X53708028Y-39312786D01*
X53587713Y-39478388D01*
X53525769Y-39599959D01*
X53477795Y-39650754D01*
X53409974Y-39667549D01*
X53343839Y-39645011D01*
X53304801Y-39599959D01*
X53212287Y-39418390D01*
X53212285Y-39418387D01*
X53212284Y-39418385D01*
X53091971Y-39252786D01*
X52947213Y-39108028D01*
X52781614Y-38987715D01*
X52712522Y-38952511D01*
X52688917Y-38940483D01*
X52638123Y-38892511D01*
X52621328Y-38824690D01*
X52643865Y-38758555D01*
X52688917Y-38719516D01*
X52781610Y-38672287D01*
X52864634Y-38611967D01*
X52947213Y-38551971D01*
X52947215Y-38551968D01*
X52947219Y-38551966D01*
X53091966Y-38407219D01*
X53091968Y-38407215D01*
X53091971Y-38407213D01*
X53212284Y-38241614D01*
X53212285Y-38241613D01*
X53212287Y-38241610D01*
X53274230Y-38120039D01*
X53282874Y-38110887D01*
X53287609Y-38099221D01*
X53306408Y-38085968D01*
X53322203Y-38069245D01*
X53334425Y-38066218D01*
X53344716Y-38058964D01*
X53367697Y-38057978D01*
X53390024Y-38052450D01*
X53401941Y-38056511D01*
G37*
%TD.AperFunction*%
%TA.AperFunction,NonConductor*%
G36*
X38216159Y-38074987D02*
G01*
X38255199Y-38120041D01*
X38347715Y-38301614D01*
X38468028Y-38467213D01*
X38612786Y-38611971D01*
X38695806Y-38672287D01*
X38778390Y-38732287D01*
X38843025Y-38765220D01*
X38871080Y-38779515D01*
X38921876Y-38827490D01*
X38938671Y-38895311D01*
X38916134Y-38961446D01*
X38871080Y-39000485D01*
X38778386Y-39047715D01*
X38612786Y-39168028D01*
X38468028Y-39312786D01*
X38347713Y-39478388D01*
X38285769Y-39599959D01*
X38237795Y-39650754D01*
X38169974Y-39667549D01*
X38103839Y-39645011D01*
X38064801Y-39599959D01*
X37972287Y-39418390D01*
X37972285Y-39418387D01*
X37972284Y-39418385D01*
X37851971Y-39252786D01*
X37707213Y-39108028D01*
X37541614Y-38987715D01*
X37472522Y-38952511D01*
X37448917Y-38940483D01*
X37398123Y-38892511D01*
X37381328Y-38824690D01*
X37403865Y-38758555D01*
X37448917Y-38719516D01*
X37541610Y-38672287D01*
X37624634Y-38611967D01*
X37707213Y-38551971D01*
X37707215Y-38551968D01*
X37707219Y-38551966D01*
X37851966Y-38407219D01*
X37851968Y-38407215D01*
X37851971Y-38407213D01*
X37972284Y-38241614D01*
X37972285Y-38241613D01*
X37972287Y-38241610D01*
X38034230Y-38120039D01*
X38082203Y-38069245D01*
X38150024Y-38052450D01*
X38216159Y-38074987D01*
G37*
%TD.AperFunction*%
%TA.AperFunction,NonConductor*%
G36*
X55818834Y-40982865D02*
G01*
X55874767Y-41024737D01*
X55899184Y-41090201D01*
X55899500Y-41099047D01*
X55899500Y-41760953D01*
X55879815Y-41827992D01*
X55827011Y-41873747D01*
X55757853Y-41883691D01*
X55694297Y-41854666D01*
X55687819Y-41848634D01*
X55547213Y-41708028D01*
X55381614Y-41587715D01*
X55375006Y-41584348D01*
X55288917Y-41540483D01*
X55238123Y-41492511D01*
X55221328Y-41424690D01*
X55243865Y-41358555D01*
X55288917Y-41319516D01*
X55381610Y-41272287D01*
X55464198Y-41212284D01*
X55547213Y-41151971D01*
X55547215Y-41151968D01*
X55547219Y-41151966D01*
X55687819Y-41011366D01*
X55749142Y-40977881D01*
X55818834Y-40982865D01*
G37*
%TD.AperFunction*%
%TA.AperFunction,NonConductor*%
G36*
X53401941Y-40596511D02*
G01*
X53414521Y-40595972D01*
X53434386Y-40607567D01*
X53456159Y-40614987D01*
X53465433Y-40625689D01*
X53474863Y-40631194D01*
X53495199Y-40660041D01*
X53587715Y-40841614D01*
X53708028Y-41007213D01*
X53852786Y-41151971D01*
X53935806Y-41212287D01*
X54018390Y-41272287D01*
X54083025Y-41305220D01*
X54111080Y-41319515D01*
X54161876Y-41367490D01*
X54178671Y-41435311D01*
X54156134Y-41501446D01*
X54111080Y-41540485D01*
X54018386Y-41587715D01*
X53852786Y-41708028D01*
X53708028Y-41852786D01*
X53587713Y-42018388D01*
X53525769Y-42139959D01*
X53477795Y-42190754D01*
X53409974Y-42207549D01*
X53343839Y-42185011D01*
X53304801Y-42139959D01*
X53212287Y-41958390D01*
X53212285Y-41958387D01*
X53212284Y-41958385D01*
X53091971Y-41792786D01*
X52947213Y-41648028D01*
X52781614Y-41527715D01*
X52712522Y-41492511D01*
X52688917Y-41480483D01*
X52638123Y-41432511D01*
X52621328Y-41364690D01*
X52643865Y-41298555D01*
X52688917Y-41259516D01*
X52781610Y-41212287D01*
X52864634Y-41151967D01*
X52947213Y-41091971D01*
X52947215Y-41091968D01*
X52947219Y-41091966D01*
X53091966Y-40947219D01*
X53091968Y-40947215D01*
X53091971Y-40947213D01*
X53212284Y-40781614D01*
X53212285Y-40781613D01*
X53212287Y-40781610D01*
X53274230Y-40660039D01*
X53282874Y-40650887D01*
X53287609Y-40639221D01*
X53306408Y-40625968D01*
X53322203Y-40609245D01*
X53334425Y-40606218D01*
X53344716Y-40598964D01*
X53367697Y-40597978D01*
X53390024Y-40592450D01*
X53401941Y-40596511D01*
G37*
%TD.AperFunction*%
%TA.AperFunction,NonConductor*%
G36*
X38216159Y-40614987D02*
G01*
X38255199Y-40660041D01*
X38347715Y-40841614D01*
X38468028Y-41007213D01*
X38612786Y-41151971D01*
X38695806Y-41212287D01*
X38778390Y-41272287D01*
X38843025Y-41305220D01*
X38871080Y-41319515D01*
X38921876Y-41367490D01*
X38938671Y-41435311D01*
X38916134Y-41501446D01*
X38871080Y-41540485D01*
X38778386Y-41587715D01*
X38612786Y-41708028D01*
X38468028Y-41852786D01*
X38347713Y-42018388D01*
X38285769Y-42139959D01*
X38237795Y-42190754D01*
X38169974Y-42207549D01*
X38103839Y-42185011D01*
X38064801Y-42139959D01*
X37972287Y-41958390D01*
X37972285Y-41958387D01*
X37972284Y-41958385D01*
X37851971Y-41792786D01*
X37707213Y-41648028D01*
X37541614Y-41527715D01*
X37472522Y-41492511D01*
X37448917Y-41480483D01*
X37398123Y-41432511D01*
X37381328Y-41364690D01*
X37403865Y-41298555D01*
X37448917Y-41259516D01*
X37541610Y-41212287D01*
X37624634Y-41151967D01*
X37707213Y-41091971D01*
X37707215Y-41091968D01*
X37707219Y-41091966D01*
X37851966Y-40947219D01*
X37851968Y-40947215D01*
X37851971Y-40947213D01*
X37972284Y-40781614D01*
X37972285Y-40781613D01*
X37972287Y-40781610D01*
X38034230Y-40660039D01*
X38082203Y-40609245D01*
X38150024Y-40592450D01*
X38216159Y-40614987D01*
G37*
%TD.AperFunction*%
%TA.AperFunction,NonConductor*%
G36*
X55818834Y-43522865D02*
G01*
X55874767Y-43564737D01*
X55899184Y-43630201D01*
X55899500Y-43639047D01*
X55899500Y-44300953D01*
X55879815Y-44367992D01*
X55827011Y-44413747D01*
X55757853Y-44423691D01*
X55694297Y-44394666D01*
X55687819Y-44388634D01*
X55547213Y-44248028D01*
X55381614Y-44127715D01*
X55375006Y-44124348D01*
X55288917Y-44080483D01*
X55238123Y-44032511D01*
X55221328Y-43964690D01*
X55243865Y-43898555D01*
X55288917Y-43859516D01*
X55381610Y-43812287D01*
X55464198Y-43752284D01*
X55547213Y-43691971D01*
X55547215Y-43691968D01*
X55547219Y-43691966D01*
X55687819Y-43551366D01*
X55749142Y-43517881D01*
X55818834Y-43522865D01*
G37*
%TD.AperFunction*%
%TA.AperFunction,NonConductor*%
G36*
X53401941Y-43136511D02*
G01*
X53414521Y-43135972D01*
X53434386Y-43147567D01*
X53456159Y-43154987D01*
X53465433Y-43165689D01*
X53474863Y-43171194D01*
X53495199Y-43200041D01*
X53587715Y-43381614D01*
X53708028Y-43547213D01*
X53852786Y-43691971D01*
X53935806Y-43752287D01*
X54018390Y-43812287D01*
X54083025Y-43845220D01*
X54111080Y-43859515D01*
X54161876Y-43907490D01*
X54178671Y-43975311D01*
X54156134Y-44041446D01*
X54111080Y-44080485D01*
X54018386Y-44127715D01*
X53852786Y-44248028D01*
X53708028Y-44392786D01*
X53587713Y-44558388D01*
X53525769Y-44679959D01*
X53477795Y-44730754D01*
X53409974Y-44747549D01*
X53343839Y-44725011D01*
X53304801Y-44679959D01*
X53212287Y-44498390D01*
X53212285Y-44498387D01*
X53212284Y-44498385D01*
X53091971Y-44332786D01*
X52947213Y-44188028D01*
X52781614Y-44067715D01*
X52712522Y-44032511D01*
X52688917Y-44020483D01*
X52638123Y-43972511D01*
X52621328Y-43904690D01*
X52643865Y-43838555D01*
X52688917Y-43799516D01*
X52781610Y-43752287D01*
X52864634Y-43691967D01*
X52947213Y-43631971D01*
X52947215Y-43631968D01*
X52947219Y-43631966D01*
X53091966Y-43487219D01*
X53091968Y-43487215D01*
X53091971Y-43487213D01*
X53212284Y-43321614D01*
X53212285Y-43321613D01*
X53212287Y-43321610D01*
X53274230Y-43200039D01*
X53282874Y-43190887D01*
X53287609Y-43179221D01*
X53306408Y-43165968D01*
X53322203Y-43149245D01*
X53334425Y-43146218D01*
X53344716Y-43138964D01*
X53367697Y-43137978D01*
X53390024Y-43132450D01*
X53401941Y-43136511D01*
G37*
%TD.AperFunction*%
%TA.AperFunction,NonConductor*%
G36*
X38216159Y-43154987D02*
G01*
X38255199Y-43200041D01*
X38347715Y-43381614D01*
X38468028Y-43547213D01*
X38612786Y-43691971D01*
X38695806Y-43752287D01*
X38778390Y-43812287D01*
X38843025Y-43845220D01*
X38871080Y-43859515D01*
X38921876Y-43907490D01*
X38938671Y-43975311D01*
X38916134Y-44041446D01*
X38871080Y-44080485D01*
X38778386Y-44127715D01*
X38612786Y-44248028D01*
X38468028Y-44392786D01*
X38347713Y-44558388D01*
X38285769Y-44679959D01*
X38237795Y-44730754D01*
X38169974Y-44747549D01*
X38103839Y-44725011D01*
X38064801Y-44679959D01*
X37972287Y-44498390D01*
X37972285Y-44498387D01*
X37972284Y-44498385D01*
X37851971Y-44332786D01*
X37707213Y-44188028D01*
X37541614Y-44067715D01*
X37472522Y-44032511D01*
X37448917Y-44020483D01*
X37398123Y-43972511D01*
X37381328Y-43904690D01*
X37403865Y-43838555D01*
X37448917Y-43799516D01*
X37541610Y-43752287D01*
X37624634Y-43691967D01*
X37707213Y-43631971D01*
X37707215Y-43631968D01*
X37707219Y-43631966D01*
X37851966Y-43487219D01*
X37851968Y-43487215D01*
X37851971Y-43487213D01*
X37972284Y-43321614D01*
X37972285Y-43321613D01*
X37972287Y-43321610D01*
X38034230Y-43200039D01*
X38082203Y-43149245D01*
X38150024Y-43132450D01*
X38216159Y-43154987D01*
G37*
%TD.AperFunction*%
%TA.AperFunction,NonConductor*%
G36*
X51167992Y-28820185D02*
G01*
X51213747Y-28872989D01*
X51223691Y-28942147D01*
X51194666Y-29005703D01*
X51188634Y-29012181D01*
X51108032Y-29092782D01*
X51108028Y-29092786D01*
X50987715Y-29258386D01*
X50894781Y-29440776D01*
X50831522Y-29635465D01*
X50799500Y-29837648D01*
X50799500Y-30042351D01*
X50831522Y-30244534D01*
X50894781Y-30439223D01*
X50987715Y-30621613D01*
X51108028Y-30787213D01*
X51252786Y-30931971D01*
X51335371Y-30991971D01*
X51418390Y-31052287D01*
X51509840Y-31098883D01*
X51511080Y-31099515D01*
X51561876Y-31147490D01*
X51578671Y-31215311D01*
X51556134Y-31281446D01*
X51511080Y-31320485D01*
X51418386Y-31367715D01*
X51252786Y-31488028D01*
X51108028Y-31632786D01*
X50987715Y-31798386D01*
X50894781Y-31980776D01*
X50831522Y-32175465D01*
X50799500Y-32377648D01*
X50799500Y-32582351D01*
X50831522Y-32784534D01*
X50894781Y-32979223D01*
X50987715Y-33161613D01*
X51108028Y-33327213D01*
X51252786Y-33471971D01*
X51335371Y-33531971D01*
X51418390Y-33592287D01*
X51509840Y-33638883D01*
X51511080Y-33639515D01*
X51561876Y-33687490D01*
X51578671Y-33755311D01*
X51556134Y-33821446D01*
X51511080Y-33860485D01*
X51418386Y-33907715D01*
X51252786Y-34028028D01*
X51108028Y-34172786D01*
X50987715Y-34338386D01*
X50894781Y-34520776D01*
X50831522Y-34715465D01*
X50799500Y-34917648D01*
X50799500Y-35122351D01*
X50808318Y-35178026D01*
X50799363Y-35247320D01*
X50773526Y-35285105D01*
X41017045Y-45041586D01*
X40983826Y-45091306D01*
X40983820Y-45091315D01*
X40973369Y-45106954D01*
X40919754Y-45151756D01*
X40850429Y-45160459D01*
X40787403Y-45130301D01*
X40750687Y-45070855D01*
X40747798Y-45057455D01*
X40745285Y-45041586D01*
X40728477Y-44935466D01*
X40665220Y-44740781D01*
X40665218Y-44740778D01*
X40665218Y-44740776D01*
X40631503Y-44674607D01*
X40572287Y-44558390D01*
X40528692Y-44498386D01*
X40451971Y-44392786D01*
X40307213Y-44248028D01*
X40141614Y-44127715D01*
X40135006Y-44124348D01*
X40048917Y-44080483D01*
X39998123Y-44032511D01*
X39981328Y-43964690D01*
X40003865Y-43898555D01*
X40048917Y-43859516D01*
X40141610Y-43812287D01*
X40224198Y-43752284D01*
X40307213Y-43691971D01*
X40307215Y-43691968D01*
X40307219Y-43691966D01*
X40451966Y-43547219D01*
X40451968Y-43547215D01*
X40451971Y-43547213D01*
X40504732Y-43474590D01*
X40572287Y-43381610D01*
X40665220Y-43199219D01*
X40728477Y-43004534D01*
X40760500Y-42802352D01*
X40760500Y-42597648D01*
X40728477Y-42395466D01*
X40708981Y-42335465D01*
X40665218Y-42200776D01*
X40631503Y-42134607D01*
X40572287Y-42018390D01*
X40528692Y-41958386D01*
X40451971Y-41852786D01*
X40307213Y-41708028D01*
X40141614Y-41587715D01*
X40135006Y-41584348D01*
X40048917Y-41540483D01*
X39998123Y-41492511D01*
X39981328Y-41424690D01*
X40003865Y-41358555D01*
X40048917Y-41319516D01*
X40141610Y-41272287D01*
X40224198Y-41212284D01*
X40307213Y-41151971D01*
X40307215Y-41151968D01*
X40307219Y-41151966D01*
X40451966Y-41007219D01*
X40451968Y-41007215D01*
X40451971Y-41007213D01*
X40504732Y-40934590D01*
X40572287Y-40841610D01*
X40665220Y-40659219D01*
X40728477Y-40464534D01*
X40760500Y-40262352D01*
X40760500Y-40057648D01*
X40728477Y-39855466D01*
X40708981Y-39795465D01*
X40665218Y-39660776D01*
X40631503Y-39594607D01*
X40572287Y-39478390D01*
X40528692Y-39418386D01*
X40451971Y-39312786D01*
X40307213Y-39168028D01*
X40141614Y-39047715D01*
X40135006Y-39044348D01*
X40048917Y-39000483D01*
X39998123Y-38952511D01*
X39981328Y-38884690D01*
X40003865Y-38818555D01*
X40048917Y-38779516D01*
X40141610Y-38732287D01*
X40224198Y-38672284D01*
X40307213Y-38611971D01*
X40307215Y-38611968D01*
X40307219Y-38611966D01*
X40451966Y-38467219D01*
X40451968Y-38467215D01*
X40451971Y-38467213D01*
X40504732Y-38394590D01*
X40572287Y-38301610D01*
X40665220Y-38119219D01*
X40728477Y-37924534D01*
X40760500Y-37722352D01*
X40760500Y-37517648D01*
X40728477Y-37315466D01*
X40708981Y-37255465D01*
X40665218Y-37120776D01*
X40631503Y-37054607D01*
X40572287Y-36938390D01*
X40528692Y-36878386D01*
X40451971Y-36772786D01*
X40307213Y-36628028D01*
X40141614Y-36507715D01*
X40135006Y-36504348D01*
X40048917Y-36460483D01*
X39998123Y-36412511D01*
X39981328Y-36344690D01*
X40003865Y-36278555D01*
X40048917Y-36239516D01*
X40141610Y-36192287D01*
X40224198Y-36132284D01*
X40307213Y-36071971D01*
X40307215Y-36071968D01*
X40307219Y-36071966D01*
X40451966Y-35927219D01*
X40451968Y-35927215D01*
X40451971Y-35927213D01*
X40504732Y-35854590D01*
X40572287Y-35761610D01*
X40665220Y-35579219D01*
X40728477Y-35384534D01*
X40760500Y-35182352D01*
X40760500Y-34977648D01*
X40728477Y-34775466D01*
X40708981Y-34715465D01*
X40665218Y-34580776D01*
X40631503Y-34514607D01*
X40572287Y-34398390D01*
X40528692Y-34338386D01*
X40451971Y-34232786D01*
X40307213Y-34088028D01*
X40141614Y-33967715D01*
X40135006Y-33964348D01*
X40048917Y-33920483D01*
X39998123Y-33872511D01*
X39981328Y-33804690D01*
X40003865Y-33738555D01*
X40048917Y-33699516D01*
X40141610Y-33652287D01*
X40224198Y-33592284D01*
X40307213Y-33531971D01*
X40307215Y-33531968D01*
X40307219Y-33531966D01*
X40451966Y-33387219D01*
X40451968Y-33387215D01*
X40451971Y-33387213D01*
X40504732Y-33314590D01*
X40572287Y-33221610D01*
X40665220Y-33039219D01*
X40728477Y-32844534D01*
X40760500Y-32642352D01*
X40760500Y-32437648D01*
X40728477Y-32235466D01*
X40708981Y-32175465D01*
X40665218Y-32040776D01*
X40631503Y-31974607D01*
X40572287Y-31858390D01*
X40528692Y-31798386D01*
X40451971Y-31692786D01*
X40307213Y-31548028D01*
X40141614Y-31427715D01*
X40135006Y-31424348D01*
X40048917Y-31380483D01*
X39998123Y-31332511D01*
X39981328Y-31264690D01*
X40003865Y-31198555D01*
X40048917Y-31159516D01*
X40141610Y-31112287D01*
X40224198Y-31052284D01*
X40307213Y-30991971D01*
X40307215Y-30991968D01*
X40307219Y-30991966D01*
X40451966Y-30847219D01*
X40451968Y-30847215D01*
X40451971Y-30847213D01*
X40504732Y-30774590D01*
X40572287Y-30681610D01*
X40665220Y-30499219D01*
X40728477Y-30304534D01*
X40760500Y-30102352D01*
X40760500Y-29897648D01*
X40728477Y-29695466D01*
X40708981Y-29635465D01*
X40665218Y-29500776D01*
X40631503Y-29434607D01*
X40572287Y-29318390D01*
X40528692Y-29258386D01*
X40451971Y-29152786D01*
X40311366Y-29012181D01*
X40277881Y-28950858D01*
X40282865Y-28881166D01*
X40324737Y-28825233D01*
X40390201Y-28800816D01*
X40399047Y-28800500D01*
X51100953Y-28800500D01*
X51167992Y-28820185D01*
G37*
%TD.AperFunction*%
%TA.AperFunction,NonConductor*%
G36*
X55818834Y-46062865D02*
G01*
X55874767Y-46104737D01*
X55899184Y-46170201D01*
X55899500Y-46179047D01*
X55899500Y-46840953D01*
X55879815Y-46907992D01*
X55827011Y-46953747D01*
X55757853Y-46963691D01*
X55694297Y-46934666D01*
X55687819Y-46928634D01*
X55547213Y-46788028D01*
X55381614Y-46667715D01*
X55375006Y-46664348D01*
X55288917Y-46620483D01*
X55238123Y-46572511D01*
X55221328Y-46504690D01*
X55243865Y-46438555D01*
X55288917Y-46399516D01*
X55381610Y-46352287D01*
X55464198Y-46292284D01*
X55547213Y-46231971D01*
X55547215Y-46231968D01*
X55547219Y-46231966D01*
X55687819Y-46091366D01*
X55749142Y-46057881D01*
X55818834Y-46062865D01*
G37*
%TD.AperFunction*%
%TA.AperFunction,NonConductor*%
G36*
X40796945Y-45792697D02*
G01*
X40840397Y-45847412D01*
X40849500Y-45894046D01*
X40849500Y-47125953D01*
X40829815Y-47192992D01*
X40777011Y-47238747D01*
X40707853Y-47248691D01*
X40644297Y-47219666D01*
X40615015Y-47182248D01*
X40609291Y-47171015D01*
X40572287Y-47098390D01*
X40528692Y-47038386D01*
X40451971Y-46932786D01*
X40307213Y-46788028D01*
X40141614Y-46667715D01*
X40135006Y-46664348D01*
X40048917Y-46620483D01*
X39998123Y-46572511D01*
X39981328Y-46504690D01*
X40003865Y-46438555D01*
X40048917Y-46399516D01*
X40141610Y-46352287D01*
X40224198Y-46292284D01*
X40307213Y-46231971D01*
X40307215Y-46231968D01*
X40307219Y-46231966D01*
X40451966Y-46087219D01*
X40451968Y-46087215D01*
X40451971Y-46087213D01*
X40572284Y-45921614D01*
X40572283Y-45921614D01*
X40572287Y-45921610D01*
X40615015Y-45837750D01*
X40662989Y-45786955D01*
X40730810Y-45770160D01*
X40796945Y-45792697D01*
G37*
%TD.AperFunction*%
%TA.AperFunction,NonConductor*%
G36*
X53401941Y-45676511D02*
G01*
X53414521Y-45675972D01*
X53434386Y-45687567D01*
X53456159Y-45694987D01*
X53465433Y-45705689D01*
X53474863Y-45711194D01*
X53495198Y-45740040D01*
X53522971Y-45794547D01*
X53587715Y-45921614D01*
X53708028Y-46087213D01*
X53852786Y-46231971D01*
X53935806Y-46292287D01*
X54018390Y-46352287D01*
X54083025Y-46385220D01*
X54111080Y-46399515D01*
X54161876Y-46447490D01*
X54178671Y-46515311D01*
X54156134Y-46581446D01*
X54111080Y-46620485D01*
X54018386Y-46667715D01*
X53852786Y-46788028D01*
X53708028Y-46932786D01*
X53587713Y-47098388D01*
X53525769Y-47219959D01*
X53477795Y-47270754D01*
X53409974Y-47287549D01*
X53343839Y-47265011D01*
X53304801Y-47219959D01*
X53212287Y-47038390D01*
X53212285Y-47038387D01*
X53212284Y-47038385D01*
X53091971Y-46872786D01*
X52947213Y-46728028D01*
X52781614Y-46607715D01*
X52712522Y-46572511D01*
X52688917Y-46560483D01*
X52638123Y-46512511D01*
X52621328Y-46444690D01*
X52643865Y-46378555D01*
X52688917Y-46339516D01*
X52781610Y-46292287D01*
X52864634Y-46231967D01*
X52947213Y-46171971D01*
X52947215Y-46171968D01*
X52947219Y-46171966D01*
X53091966Y-46027219D01*
X53091968Y-46027215D01*
X53091971Y-46027213D01*
X53212284Y-45861614D01*
X53212285Y-45861613D01*
X53212287Y-45861610D01*
X53274230Y-45740039D01*
X53282874Y-45730887D01*
X53287609Y-45719221D01*
X53306408Y-45705968D01*
X53322203Y-45689245D01*
X53334425Y-45686218D01*
X53344716Y-45678964D01*
X53367697Y-45677978D01*
X53390024Y-45672450D01*
X53401941Y-45676511D01*
G37*
%TD.AperFunction*%
%TA.AperFunction,NonConductor*%
G36*
X38216159Y-45694987D02*
G01*
X38255198Y-45740040D01*
X38282971Y-45794547D01*
X38347715Y-45921614D01*
X38468028Y-46087213D01*
X38612786Y-46231971D01*
X38695806Y-46292287D01*
X38778390Y-46352287D01*
X38843025Y-46385220D01*
X38871080Y-46399515D01*
X38921876Y-46447490D01*
X38938671Y-46515311D01*
X38916134Y-46581446D01*
X38871080Y-46620485D01*
X38778386Y-46667715D01*
X38612786Y-46788028D01*
X38468028Y-46932786D01*
X38347713Y-47098388D01*
X38285769Y-47219959D01*
X38237795Y-47270754D01*
X38169974Y-47287549D01*
X38103839Y-47265011D01*
X38064801Y-47219959D01*
X37972287Y-47038390D01*
X37972285Y-47038387D01*
X37972284Y-47038385D01*
X37851971Y-46872786D01*
X37707213Y-46728028D01*
X37541614Y-46607715D01*
X37472522Y-46572511D01*
X37448917Y-46560483D01*
X37398123Y-46512511D01*
X37381328Y-46444690D01*
X37403865Y-46378555D01*
X37448917Y-46339516D01*
X37541610Y-46292287D01*
X37624634Y-46231967D01*
X37707213Y-46171971D01*
X37707215Y-46171968D01*
X37707219Y-46171966D01*
X37851966Y-46027219D01*
X37851968Y-46027215D01*
X37851971Y-46027213D01*
X37972284Y-45861614D01*
X37972285Y-45861613D01*
X37972287Y-45861610D01*
X38034230Y-45740039D01*
X38082203Y-45689245D01*
X38150024Y-45672450D01*
X38216159Y-45694987D01*
G37*
%TD.AperFunction*%
%TA.AperFunction,NonConductor*%
G36*
X55818834Y-48602865D02*
G01*
X55874767Y-48644737D01*
X55899184Y-48710201D01*
X55899500Y-48719047D01*
X55899500Y-49380953D01*
X55879815Y-49447992D01*
X55827011Y-49493747D01*
X55757853Y-49503691D01*
X55694297Y-49474666D01*
X55687819Y-49468634D01*
X55547213Y-49328028D01*
X55381614Y-49207715D01*
X55375006Y-49204348D01*
X55288917Y-49160483D01*
X55238123Y-49112511D01*
X55221328Y-49044690D01*
X55243865Y-48978555D01*
X55288917Y-48939516D01*
X55381610Y-48892287D01*
X55464198Y-48832284D01*
X55547213Y-48771971D01*
X55547215Y-48771968D01*
X55547219Y-48771966D01*
X55687819Y-48631366D01*
X55749142Y-48597881D01*
X55818834Y-48602865D01*
G37*
%TD.AperFunction*%
%TA.AperFunction,NonConductor*%
G36*
X40796945Y-48332697D02*
G01*
X40840397Y-48387412D01*
X40849500Y-48434046D01*
X40849500Y-49665953D01*
X40829815Y-49732992D01*
X40777011Y-49778747D01*
X40707853Y-49788691D01*
X40644297Y-49759666D01*
X40615015Y-49722248D01*
X40609291Y-49711015D01*
X40572287Y-49638390D01*
X40528692Y-49578386D01*
X40451971Y-49472786D01*
X40307213Y-49328028D01*
X40141614Y-49207715D01*
X40135006Y-49204348D01*
X40048917Y-49160483D01*
X39998123Y-49112511D01*
X39981328Y-49044690D01*
X40003865Y-48978555D01*
X40048917Y-48939516D01*
X40141610Y-48892287D01*
X40224198Y-48832284D01*
X40307213Y-48771971D01*
X40307215Y-48771968D01*
X40307219Y-48771966D01*
X40451966Y-48627219D01*
X40451968Y-48627215D01*
X40451971Y-48627213D01*
X40572284Y-48461614D01*
X40572283Y-48461614D01*
X40572287Y-48461610D01*
X40615015Y-48377750D01*
X40662989Y-48326955D01*
X40730810Y-48310160D01*
X40796945Y-48332697D01*
G37*
%TD.AperFunction*%
%TA.AperFunction,NonConductor*%
G36*
X53401941Y-48216511D02*
G01*
X53414521Y-48215972D01*
X53434386Y-48227567D01*
X53456159Y-48234987D01*
X53465433Y-48245689D01*
X53474863Y-48251194D01*
X53495198Y-48280040D01*
X53544985Y-48377751D01*
X53587715Y-48461614D01*
X53708028Y-48627213D01*
X53852786Y-48771971D01*
X53935806Y-48832287D01*
X54018390Y-48892287D01*
X54083025Y-48925220D01*
X54111080Y-48939515D01*
X54161876Y-48987490D01*
X54178671Y-49055311D01*
X54156134Y-49121446D01*
X54111080Y-49160485D01*
X54018386Y-49207715D01*
X53852786Y-49328028D01*
X53708028Y-49472786D01*
X53587713Y-49638388D01*
X53525769Y-49759959D01*
X53477795Y-49810754D01*
X53409974Y-49827549D01*
X53343839Y-49805011D01*
X53304801Y-49759959D01*
X53212287Y-49578390D01*
X53212285Y-49578387D01*
X53212284Y-49578385D01*
X53091971Y-49412786D01*
X52947213Y-49268028D01*
X52781614Y-49147715D01*
X52712522Y-49112511D01*
X52688917Y-49100483D01*
X52638123Y-49052511D01*
X52621328Y-48984690D01*
X52643865Y-48918555D01*
X52688917Y-48879516D01*
X52781610Y-48832287D01*
X52864634Y-48771967D01*
X52947213Y-48711971D01*
X52947215Y-48711968D01*
X52947219Y-48711966D01*
X53091966Y-48567219D01*
X53091968Y-48567215D01*
X53091971Y-48567213D01*
X53212284Y-48401614D01*
X53212285Y-48401613D01*
X53212287Y-48401610D01*
X53274230Y-48280039D01*
X53282874Y-48270887D01*
X53287609Y-48259221D01*
X53306408Y-48245968D01*
X53322203Y-48229245D01*
X53334425Y-48226218D01*
X53344716Y-48218964D01*
X53367697Y-48217978D01*
X53390024Y-48212450D01*
X53401941Y-48216511D01*
G37*
%TD.AperFunction*%
%TA.AperFunction,NonConductor*%
G36*
X38216159Y-48234987D02*
G01*
X38255198Y-48280040D01*
X38304985Y-48377751D01*
X38347715Y-48461614D01*
X38468028Y-48627213D01*
X38612786Y-48771971D01*
X38695806Y-48832287D01*
X38778390Y-48892287D01*
X38843025Y-48925220D01*
X38871080Y-48939515D01*
X38921876Y-48987490D01*
X38938671Y-49055311D01*
X38916134Y-49121446D01*
X38871080Y-49160485D01*
X38778386Y-49207715D01*
X38612786Y-49328028D01*
X38468028Y-49472786D01*
X38347713Y-49638388D01*
X38285769Y-49759959D01*
X38237795Y-49810754D01*
X38169974Y-49827549D01*
X38103839Y-49805011D01*
X38064801Y-49759959D01*
X37972287Y-49578390D01*
X37972285Y-49578387D01*
X37972284Y-49578385D01*
X37851971Y-49412786D01*
X37707213Y-49268028D01*
X37541614Y-49147715D01*
X37472522Y-49112511D01*
X37448917Y-49100483D01*
X37398123Y-49052511D01*
X37381328Y-48984690D01*
X37403865Y-48918555D01*
X37448917Y-48879516D01*
X37541610Y-48832287D01*
X37624634Y-48771967D01*
X37707213Y-48711971D01*
X37707215Y-48711968D01*
X37707219Y-48711966D01*
X37851966Y-48567219D01*
X37851968Y-48567215D01*
X37851971Y-48567213D01*
X37972284Y-48401614D01*
X37972285Y-48401613D01*
X37972287Y-48401610D01*
X38034230Y-48280039D01*
X38082203Y-48229245D01*
X38150024Y-48212450D01*
X38216159Y-48234987D01*
G37*
%TD.AperFunction*%
%TA.AperFunction,NonConductor*%
G36*
X55818834Y-51142865D02*
G01*
X55874767Y-51184737D01*
X55899184Y-51250201D01*
X55899500Y-51259047D01*
X55899500Y-51920953D01*
X55879815Y-51987992D01*
X55827011Y-52033747D01*
X55757853Y-52043691D01*
X55694297Y-52014666D01*
X55687819Y-52008634D01*
X55547213Y-51868028D01*
X55381614Y-51747715D01*
X55375006Y-51744348D01*
X55288917Y-51700483D01*
X55238123Y-51652511D01*
X55221328Y-51584690D01*
X55243865Y-51518555D01*
X55288917Y-51479516D01*
X55381610Y-51432287D01*
X55464198Y-51372284D01*
X55547213Y-51311971D01*
X55547215Y-51311968D01*
X55547219Y-51311966D01*
X55687819Y-51171366D01*
X55749142Y-51137881D01*
X55818834Y-51142865D01*
G37*
%TD.AperFunction*%
%TA.AperFunction,NonConductor*%
G36*
X40796945Y-50872697D02*
G01*
X40840397Y-50927412D01*
X40849500Y-50974046D01*
X40849500Y-52205953D01*
X40829815Y-52272992D01*
X40777011Y-52318747D01*
X40707853Y-52328691D01*
X40644297Y-52299666D01*
X40615015Y-52262248D01*
X40609291Y-52251015D01*
X40572287Y-52178390D01*
X40528692Y-52118386D01*
X40451971Y-52012786D01*
X40307213Y-51868028D01*
X40141614Y-51747715D01*
X40135006Y-51744348D01*
X40048917Y-51700483D01*
X39998123Y-51652511D01*
X39981328Y-51584690D01*
X40003865Y-51518555D01*
X40048917Y-51479516D01*
X40141610Y-51432287D01*
X40224198Y-51372284D01*
X40307213Y-51311971D01*
X40307215Y-51311968D01*
X40307219Y-51311966D01*
X40451966Y-51167219D01*
X40451968Y-51167215D01*
X40451971Y-51167213D01*
X40572284Y-51001614D01*
X40572283Y-51001614D01*
X40572287Y-51001610D01*
X40615015Y-50917750D01*
X40662989Y-50866955D01*
X40730810Y-50850160D01*
X40796945Y-50872697D01*
G37*
%TD.AperFunction*%
%TA.AperFunction,NonConductor*%
G36*
X53401941Y-50756511D02*
G01*
X53414521Y-50755972D01*
X53434386Y-50767567D01*
X53456159Y-50774987D01*
X53465433Y-50785689D01*
X53474863Y-50791194D01*
X53495198Y-50820040D01*
X53544985Y-50917751D01*
X53587715Y-51001614D01*
X53708028Y-51167213D01*
X53852786Y-51311971D01*
X53935806Y-51372287D01*
X54018390Y-51432287D01*
X54083025Y-51465220D01*
X54111080Y-51479515D01*
X54161876Y-51527490D01*
X54178671Y-51595311D01*
X54156134Y-51661446D01*
X54111080Y-51700485D01*
X54018386Y-51747715D01*
X53852786Y-51868028D01*
X53708028Y-52012786D01*
X53587713Y-52178388D01*
X53525769Y-52299959D01*
X53477795Y-52350754D01*
X53409974Y-52367549D01*
X53343839Y-52345011D01*
X53304801Y-52299959D01*
X53212287Y-52118390D01*
X53212285Y-52118387D01*
X53212284Y-52118385D01*
X53091971Y-51952786D01*
X52947213Y-51808028D01*
X52781614Y-51687715D01*
X52712522Y-51652511D01*
X52688917Y-51640483D01*
X52638123Y-51592511D01*
X52621328Y-51524690D01*
X52643865Y-51458555D01*
X52688917Y-51419516D01*
X52781610Y-51372287D01*
X52864634Y-51311967D01*
X52947213Y-51251971D01*
X52947215Y-51251968D01*
X52947219Y-51251966D01*
X53091966Y-51107219D01*
X53091968Y-51107215D01*
X53091971Y-51107213D01*
X53212284Y-50941614D01*
X53212285Y-50941613D01*
X53212287Y-50941610D01*
X53274230Y-50820039D01*
X53282874Y-50810887D01*
X53287609Y-50799221D01*
X53306408Y-50785968D01*
X53322203Y-50769245D01*
X53334425Y-50766218D01*
X53344716Y-50758964D01*
X53367697Y-50757978D01*
X53390024Y-50752450D01*
X53401941Y-50756511D01*
G37*
%TD.AperFunction*%
%TA.AperFunction,NonConductor*%
G36*
X38216159Y-50774987D02*
G01*
X38255198Y-50820040D01*
X38304985Y-50917751D01*
X38347715Y-51001614D01*
X38468028Y-51167213D01*
X38612786Y-51311971D01*
X38695806Y-51372287D01*
X38778390Y-51432287D01*
X38843025Y-51465220D01*
X38871080Y-51479515D01*
X38921876Y-51527490D01*
X38938671Y-51595311D01*
X38916134Y-51661446D01*
X38871080Y-51700485D01*
X38778386Y-51747715D01*
X38612786Y-51868028D01*
X38468028Y-52012786D01*
X38347713Y-52178388D01*
X38285769Y-52299959D01*
X38237795Y-52350754D01*
X38169974Y-52367549D01*
X38103839Y-52345011D01*
X38064801Y-52299959D01*
X37972287Y-52118390D01*
X37972285Y-52118387D01*
X37972284Y-52118385D01*
X37851971Y-51952786D01*
X37707213Y-51808028D01*
X37541614Y-51687715D01*
X37472522Y-51652511D01*
X37448917Y-51640483D01*
X37398123Y-51592511D01*
X37381328Y-51524690D01*
X37403865Y-51458555D01*
X37448917Y-51419516D01*
X37541610Y-51372287D01*
X37624634Y-51311967D01*
X37707213Y-51251971D01*
X37707215Y-51251968D01*
X37707219Y-51251966D01*
X37851966Y-51107219D01*
X37851968Y-51107215D01*
X37851971Y-51107213D01*
X37972284Y-50941614D01*
X37972285Y-50941613D01*
X37972287Y-50941610D01*
X38034230Y-50820039D01*
X38082203Y-50769245D01*
X38150024Y-50752450D01*
X38216159Y-50774987D01*
G37*
%TD.AperFunction*%
%TA.AperFunction,NonConductor*%
G36*
X55818834Y-53682865D02*
G01*
X55874767Y-53724737D01*
X55899184Y-53790201D01*
X55899500Y-53799047D01*
X55899500Y-54460953D01*
X55879815Y-54527992D01*
X55827011Y-54573747D01*
X55757853Y-54583691D01*
X55694297Y-54554666D01*
X55687819Y-54548634D01*
X55547213Y-54408028D01*
X55381614Y-54287715D01*
X55375006Y-54284348D01*
X55288917Y-54240483D01*
X55238123Y-54192511D01*
X55221328Y-54124690D01*
X55243865Y-54058555D01*
X55288917Y-54019516D01*
X55381610Y-53972287D01*
X55464198Y-53912284D01*
X55547213Y-53851971D01*
X55547215Y-53851968D01*
X55547219Y-53851966D01*
X55687819Y-53711366D01*
X55749142Y-53677881D01*
X55818834Y-53682865D01*
G37*
%TD.AperFunction*%
%TA.AperFunction,NonConductor*%
G36*
X40796945Y-53412697D02*
G01*
X40840397Y-53467412D01*
X40849500Y-53514046D01*
X40849500Y-54745953D01*
X40829815Y-54812992D01*
X40777011Y-54858747D01*
X40707853Y-54868691D01*
X40644297Y-54839666D01*
X40615015Y-54802248D01*
X40609291Y-54791015D01*
X40572287Y-54718390D01*
X40528692Y-54658386D01*
X40451971Y-54552786D01*
X40307213Y-54408028D01*
X40141614Y-54287715D01*
X40135006Y-54284348D01*
X40048917Y-54240483D01*
X39998123Y-54192511D01*
X39981328Y-54124690D01*
X40003865Y-54058555D01*
X40048917Y-54019516D01*
X40141610Y-53972287D01*
X40224198Y-53912284D01*
X40307213Y-53851971D01*
X40307215Y-53851968D01*
X40307219Y-53851966D01*
X40451966Y-53707219D01*
X40451968Y-53707215D01*
X40451971Y-53707213D01*
X40572284Y-53541614D01*
X40572283Y-53541614D01*
X40572287Y-53541610D01*
X40615015Y-53457750D01*
X40662989Y-53406955D01*
X40730810Y-53390160D01*
X40796945Y-53412697D01*
G37*
%TD.AperFunction*%
%TA.AperFunction,NonConductor*%
G36*
X53401941Y-53296511D02*
G01*
X53414521Y-53295972D01*
X53434386Y-53307567D01*
X53456159Y-53314987D01*
X53465433Y-53325689D01*
X53474863Y-53331194D01*
X53495198Y-53360040D01*
X53544985Y-53457751D01*
X53587715Y-53541614D01*
X53708028Y-53707213D01*
X53852786Y-53851971D01*
X53935806Y-53912287D01*
X54018390Y-53972287D01*
X54083025Y-54005220D01*
X54111080Y-54019515D01*
X54161876Y-54067490D01*
X54178671Y-54135311D01*
X54156134Y-54201446D01*
X54111080Y-54240485D01*
X54018386Y-54287715D01*
X53852786Y-54408028D01*
X53708028Y-54552786D01*
X53587713Y-54718388D01*
X53525769Y-54839959D01*
X53477795Y-54890754D01*
X53409974Y-54907549D01*
X53343839Y-54885011D01*
X53304801Y-54839959D01*
X53212287Y-54658390D01*
X53212285Y-54658387D01*
X53212284Y-54658385D01*
X53091971Y-54492786D01*
X52947213Y-54348028D01*
X52781614Y-54227715D01*
X52712522Y-54192511D01*
X52688917Y-54180483D01*
X52638123Y-54132511D01*
X52621328Y-54064690D01*
X52643865Y-53998555D01*
X52688917Y-53959516D01*
X52781610Y-53912287D01*
X52864634Y-53851967D01*
X52947213Y-53791971D01*
X52947215Y-53791968D01*
X52947219Y-53791966D01*
X53091966Y-53647219D01*
X53091968Y-53647215D01*
X53091971Y-53647213D01*
X53212284Y-53481614D01*
X53212285Y-53481613D01*
X53212287Y-53481610D01*
X53274230Y-53360039D01*
X53282874Y-53350887D01*
X53287609Y-53339221D01*
X53306408Y-53325968D01*
X53322203Y-53309245D01*
X53334425Y-53306218D01*
X53344716Y-53298964D01*
X53367697Y-53297978D01*
X53390024Y-53292450D01*
X53401941Y-53296511D01*
G37*
%TD.AperFunction*%
%TA.AperFunction,NonConductor*%
G36*
X38216159Y-53314987D02*
G01*
X38255198Y-53360040D01*
X38304985Y-53457751D01*
X38347715Y-53541614D01*
X38468028Y-53707213D01*
X38612786Y-53851971D01*
X38695806Y-53912287D01*
X38778390Y-53972287D01*
X38843025Y-54005220D01*
X38871080Y-54019515D01*
X38921876Y-54067490D01*
X38938671Y-54135311D01*
X38916134Y-54201446D01*
X38871080Y-54240485D01*
X38778386Y-54287715D01*
X38612786Y-54408028D01*
X38468028Y-54552786D01*
X38347713Y-54718388D01*
X38285769Y-54839959D01*
X38237795Y-54890754D01*
X38169974Y-54907549D01*
X38103839Y-54885011D01*
X38064801Y-54839959D01*
X37972287Y-54658390D01*
X37972285Y-54658387D01*
X37972284Y-54658385D01*
X37851971Y-54492786D01*
X37707213Y-54348028D01*
X37541614Y-54227715D01*
X37472522Y-54192511D01*
X37448917Y-54180483D01*
X37398123Y-54132511D01*
X37381328Y-54064690D01*
X37403865Y-53998555D01*
X37448917Y-53959516D01*
X37541610Y-53912287D01*
X37624634Y-53851967D01*
X37707213Y-53791971D01*
X37707215Y-53791968D01*
X37707219Y-53791966D01*
X37851966Y-53647219D01*
X37851968Y-53647215D01*
X37851971Y-53647213D01*
X37972284Y-53481614D01*
X37972285Y-53481613D01*
X37972287Y-53481610D01*
X38034230Y-53360039D01*
X38082203Y-53309245D01*
X38150024Y-53292450D01*
X38216159Y-53314987D01*
G37*
%TD.AperFunction*%
%TA.AperFunction,NonConductor*%
G36*
X55818834Y-56222865D02*
G01*
X55874767Y-56264737D01*
X55899184Y-56330201D01*
X55899500Y-56339047D01*
X55899500Y-57000953D01*
X55879815Y-57067992D01*
X55827011Y-57113747D01*
X55757853Y-57123691D01*
X55694297Y-57094666D01*
X55687819Y-57088634D01*
X55547213Y-56948028D01*
X55381614Y-56827715D01*
X55375006Y-56824348D01*
X55288917Y-56780483D01*
X55238123Y-56732511D01*
X55221328Y-56664690D01*
X55243865Y-56598555D01*
X55288917Y-56559516D01*
X55381610Y-56512287D01*
X55464198Y-56452284D01*
X55547213Y-56391971D01*
X55547215Y-56391968D01*
X55547219Y-56391966D01*
X55687819Y-56251366D01*
X55749142Y-56217881D01*
X55818834Y-56222865D01*
G37*
%TD.AperFunction*%
%TA.AperFunction,NonConductor*%
G36*
X40796945Y-55952697D02*
G01*
X40840397Y-56007412D01*
X40849500Y-56054046D01*
X40849500Y-57285953D01*
X40829815Y-57352992D01*
X40777011Y-57398747D01*
X40707853Y-57408691D01*
X40644297Y-57379666D01*
X40615015Y-57342248D01*
X40609291Y-57331015D01*
X40572287Y-57258390D01*
X40528692Y-57198386D01*
X40451971Y-57092786D01*
X40307213Y-56948028D01*
X40141614Y-56827715D01*
X40135006Y-56824348D01*
X40048917Y-56780483D01*
X39998123Y-56732511D01*
X39981328Y-56664690D01*
X40003865Y-56598555D01*
X40048917Y-56559516D01*
X40141610Y-56512287D01*
X40224198Y-56452284D01*
X40307213Y-56391971D01*
X40307215Y-56391968D01*
X40307219Y-56391966D01*
X40451966Y-56247219D01*
X40451968Y-56247215D01*
X40451971Y-56247213D01*
X40572284Y-56081614D01*
X40572283Y-56081614D01*
X40572287Y-56081610D01*
X40615015Y-55997750D01*
X40662989Y-55946955D01*
X40730810Y-55930160D01*
X40796945Y-55952697D01*
G37*
%TD.AperFunction*%
%TA.AperFunction,NonConductor*%
G36*
X53401941Y-55836511D02*
G01*
X53414521Y-55835972D01*
X53434386Y-55847567D01*
X53456159Y-55854987D01*
X53465433Y-55865689D01*
X53474863Y-55871194D01*
X53495198Y-55900040D01*
X53544985Y-55997751D01*
X53587715Y-56081614D01*
X53708028Y-56247213D01*
X53852786Y-56391971D01*
X53935806Y-56452287D01*
X54018390Y-56512287D01*
X54083025Y-56545220D01*
X54111080Y-56559515D01*
X54161876Y-56607490D01*
X54178671Y-56675311D01*
X54156134Y-56741446D01*
X54111080Y-56780485D01*
X54018386Y-56827715D01*
X53852786Y-56948028D01*
X53708028Y-57092786D01*
X53587713Y-57258388D01*
X53525769Y-57379959D01*
X53477795Y-57430754D01*
X53409974Y-57447549D01*
X53343839Y-57425011D01*
X53304801Y-57379959D01*
X53212287Y-57198390D01*
X53212285Y-57198387D01*
X53212284Y-57198385D01*
X53091971Y-57032786D01*
X52947213Y-56888028D01*
X52781614Y-56767715D01*
X52712522Y-56732511D01*
X52688917Y-56720483D01*
X52638123Y-56672511D01*
X52621328Y-56604690D01*
X52643865Y-56538555D01*
X52688917Y-56499516D01*
X52781610Y-56452287D01*
X52864634Y-56391967D01*
X52947213Y-56331971D01*
X52947215Y-56331968D01*
X52947219Y-56331966D01*
X53091966Y-56187219D01*
X53091968Y-56187215D01*
X53091971Y-56187213D01*
X53212284Y-56021614D01*
X53212285Y-56021613D01*
X53212287Y-56021610D01*
X53274230Y-55900039D01*
X53282874Y-55890887D01*
X53287609Y-55879221D01*
X53306408Y-55865968D01*
X53322203Y-55849245D01*
X53334425Y-55846218D01*
X53344716Y-55838964D01*
X53367697Y-55837978D01*
X53390024Y-55832450D01*
X53401941Y-55836511D01*
G37*
%TD.AperFunction*%
%TA.AperFunction,NonConductor*%
G36*
X38216159Y-55854987D02*
G01*
X38255198Y-55900040D01*
X38304985Y-55997751D01*
X38347715Y-56081614D01*
X38468028Y-56247213D01*
X38612786Y-56391971D01*
X38695806Y-56452287D01*
X38778390Y-56512287D01*
X38843025Y-56545220D01*
X38871080Y-56559515D01*
X38921876Y-56607490D01*
X38938671Y-56675311D01*
X38916134Y-56741446D01*
X38871080Y-56780485D01*
X38778386Y-56827715D01*
X38612786Y-56948028D01*
X38468028Y-57092786D01*
X38347713Y-57258388D01*
X38285769Y-57379959D01*
X38237795Y-57430754D01*
X38169974Y-57447549D01*
X38103839Y-57425011D01*
X38064801Y-57379959D01*
X37972287Y-57198390D01*
X37972285Y-57198387D01*
X37972284Y-57198385D01*
X37851971Y-57032786D01*
X37707213Y-56888028D01*
X37541614Y-56767715D01*
X37472522Y-56732511D01*
X37448917Y-56720483D01*
X37398123Y-56672511D01*
X37381328Y-56604690D01*
X37403865Y-56538555D01*
X37448917Y-56499516D01*
X37541610Y-56452287D01*
X37624634Y-56391967D01*
X37707213Y-56331971D01*
X37707215Y-56331968D01*
X37707219Y-56331966D01*
X37851966Y-56187219D01*
X37851968Y-56187215D01*
X37851971Y-56187213D01*
X37972284Y-56021614D01*
X37972285Y-56021613D01*
X37972287Y-56021610D01*
X38034230Y-55900039D01*
X38082203Y-55849245D01*
X38150024Y-55832450D01*
X38216159Y-55854987D01*
G37*
%TD.AperFunction*%
%TA.AperFunction,NonConductor*%
G36*
X55818834Y-58762865D02*
G01*
X55874767Y-58804737D01*
X55899184Y-58870201D01*
X55899500Y-58879047D01*
X55899500Y-59540953D01*
X55879815Y-59607992D01*
X55827011Y-59653747D01*
X55757853Y-59663691D01*
X55694297Y-59634666D01*
X55687819Y-59628634D01*
X55547213Y-59488028D01*
X55381614Y-59367715D01*
X55375006Y-59364348D01*
X55288917Y-59320483D01*
X55238123Y-59272511D01*
X55221328Y-59204690D01*
X55243865Y-59138555D01*
X55288917Y-59099516D01*
X55381610Y-59052287D01*
X55464198Y-58992284D01*
X55547213Y-58931971D01*
X55547215Y-58931968D01*
X55547219Y-58931966D01*
X55687819Y-58791366D01*
X55749142Y-58757881D01*
X55818834Y-58762865D01*
G37*
%TD.AperFunction*%
%TA.AperFunction,NonConductor*%
G36*
X40796945Y-58492697D02*
G01*
X40840397Y-58547412D01*
X40849500Y-58594046D01*
X40849500Y-59825953D01*
X40829815Y-59892992D01*
X40777011Y-59938747D01*
X40707853Y-59948691D01*
X40644297Y-59919666D01*
X40615015Y-59882248D01*
X40609291Y-59871015D01*
X40572287Y-59798390D01*
X40528692Y-59738386D01*
X40451971Y-59632786D01*
X40307213Y-59488028D01*
X40141614Y-59367715D01*
X40135006Y-59364348D01*
X40048917Y-59320483D01*
X39998123Y-59272511D01*
X39981328Y-59204690D01*
X40003865Y-59138555D01*
X40048917Y-59099516D01*
X40141610Y-59052287D01*
X40224198Y-58992284D01*
X40307213Y-58931971D01*
X40307215Y-58931968D01*
X40307219Y-58931966D01*
X40451966Y-58787219D01*
X40451968Y-58787215D01*
X40451971Y-58787213D01*
X40572284Y-58621614D01*
X40572283Y-58621614D01*
X40572287Y-58621610D01*
X40615015Y-58537750D01*
X40662989Y-58486955D01*
X40730810Y-58470160D01*
X40796945Y-58492697D01*
G37*
%TD.AperFunction*%
%TA.AperFunction,NonConductor*%
G36*
X53401941Y-58376511D02*
G01*
X53414521Y-58375972D01*
X53434386Y-58387567D01*
X53456159Y-58394987D01*
X53465433Y-58405689D01*
X53474863Y-58411194D01*
X53495198Y-58440040D01*
X53544985Y-58537751D01*
X53587715Y-58621614D01*
X53708028Y-58787213D01*
X53852786Y-58931971D01*
X53935806Y-58992287D01*
X54018390Y-59052287D01*
X54083025Y-59085220D01*
X54111080Y-59099515D01*
X54161876Y-59147490D01*
X54178671Y-59215311D01*
X54156134Y-59281446D01*
X54111080Y-59320485D01*
X54018386Y-59367715D01*
X53852786Y-59488028D01*
X53708028Y-59632786D01*
X53587713Y-59798388D01*
X53525769Y-59919959D01*
X53477795Y-59970754D01*
X53409974Y-59987549D01*
X53343839Y-59965011D01*
X53304801Y-59919959D01*
X53212287Y-59738390D01*
X53212285Y-59738387D01*
X53212284Y-59738385D01*
X53091971Y-59572786D01*
X52947213Y-59428028D01*
X52781614Y-59307715D01*
X52712522Y-59272511D01*
X52688917Y-59260483D01*
X52638123Y-59212511D01*
X52621328Y-59144690D01*
X52643865Y-59078555D01*
X52688917Y-59039516D01*
X52781610Y-58992287D01*
X52864634Y-58931967D01*
X52947213Y-58871971D01*
X52947215Y-58871968D01*
X52947219Y-58871966D01*
X53091966Y-58727219D01*
X53091968Y-58727215D01*
X53091971Y-58727213D01*
X53212284Y-58561614D01*
X53212285Y-58561613D01*
X53212287Y-58561610D01*
X53274230Y-58440039D01*
X53282874Y-58430887D01*
X53287609Y-58419221D01*
X53306408Y-58405968D01*
X53322203Y-58389245D01*
X53334425Y-58386218D01*
X53344716Y-58378964D01*
X53367697Y-58377978D01*
X53390024Y-58372450D01*
X53401941Y-58376511D01*
G37*
%TD.AperFunction*%
%TA.AperFunction,NonConductor*%
G36*
X38216159Y-58394987D02*
G01*
X38255198Y-58440040D01*
X38304985Y-58537751D01*
X38347715Y-58621614D01*
X38468028Y-58787213D01*
X38612786Y-58931971D01*
X38695806Y-58992287D01*
X38778390Y-59052287D01*
X38843025Y-59085220D01*
X38871080Y-59099515D01*
X38921876Y-59147490D01*
X38938671Y-59215311D01*
X38916134Y-59281446D01*
X38871080Y-59320485D01*
X38778386Y-59367715D01*
X38612786Y-59488028D01*
X38468028Y-59632786D01*
X38347713Y-59798388D01*
X38285769Y-59919959D01*
X38237795Y-59970754D01*
X38169974Y-59987549D01*
X38103839Y-59965011D01*
X38064801Y-59919959D01*
X37972287Y-59738390D01*
X37972285Y-59738387D01*
X37972284Y-59738385D01*
X37851971Y-59572786D01*
X37707213Y-59428028D01*
X37541614Y-59307715D01*
X37472522Y-59272511D01*
X37448917Y-59260483D01*
X37398123Y-59212511D01*
X37381328Y-59144690D01*
X37403865Y-59078555D01*
X37448917Y-59039516D01*
X37541610Y-58992287D01*
X37624634Y-58931967D01*
X37707213Y-58871971D01*
X37707215Y-58871968D01*
X37707219Y-58871966D01*
X37851966Y-58727219D01*
X37851968Y-58727215D01*
X37851971Y-58727213D01*
X37972284Y-58561614D01*
X37972285Y-58561613D01*
X37972287Y-58561610D01*
X38034230Y-58440039D01*
X38082203Y-58389245D01*
X38150024Y-58372450D01*
X38216159Y-58394987D01*
G37*
%TD.AperFunction*%
%TA.AperFunction,NonConductor*%
G36*
X55818834Y-61302865D02*
G01*
X55874767Y-61344737D01*
X55899184Y-61410201D01*
X55899500Y-61419047D01*
X55899500Y-62080953D01*
X55879815Y-62147992D01*
X55827011Y-62193747D01*
X55757853Y-62203691D01*
X55694297Y-62174666D01*
X55687819Y-62168634D01*
X55547213Y-62028028D01*
X55381614Y-61907715D01*
X55375006Y-61904348D01*
X55288917Y-61860483D01*
X55238123Y-61812511D01*
X55221328Y-61744690D01*
X55243865Y-61678555D01*
X55288917Y-61639516D01*
X55381610Y-61592287D01*
X55464198Y-61532284D01*
X55547213Y-61471971D01*
X55547215Y-61471968D01*
X55547219Y-61471966D01*
X55687819Y-61331366D01*
X55749142Y-61297881D01*
X55818834Y-61302865D01*
G37*
%TD.AperFunction*%
%TA.AperFunction,NonConductor*%
G36*
X40796945Y-61032697D02*
G01*
X40840397Y-61087412D01*
X40849500Y-61134046D01*
X40849500Y-62365953D01*
X40829815Y-62432992D01*
X40777011Y-62478747D01*
X40707853Y-62488691D01*
X40644297Y-62459666D01*
X40615015Y-62422248D01*
X40609291Y-62411015D01*
X40572287Y-62338390D01*
X40528692Y-62278386D01*
X40451971Y-62172786D01*
X40307213Y-62028028D01*
X40141614Y-61907715D01*
X40135006Y-61904348D01*
X40048917Y-61860483D01*
X39998123Y-61812511D01*
X39981328Y-61744690D01*
X40003865Y-61678555D01*
X40048917Y-61639516D01*
X40141610Y-61592287D01*
X40224198Y-61532284D01*
X40307213Y-61471971D01*
X40307215Y-61471968D01*
X40307219Y-61471966D01*
X40451966Y-61327219D01*
X40451968Y-61327215D01*
X40451971Y-61327213D01*
X40572284Y-61161614D01*
X40572283Y-61161614D01*
X40572287Y-61161610D01*
X40615015Y-61077750D01*
X40662989Y-61026955D01*
X40730810Y-61010160D01*
X40796945Y-61032697D01*
G37*
%TD.AperFunction*%
%TA.AperFunction,NonConductor*%
G36*
X53401941Y-60916511D02*
G01*
X53414521Y-60915972D01*
X53434386Y-60927567D01*
X53456159Y-60934987D01*
X53465433Y-60945689D01*
X53474863Y-60951194D01*
X53495198Y-60980040D01*
X53544985Y-61077751D01*
X53587715Y-61161614D01*
X53708028Y-61327213D01*
X53852786Y-61471971D01*
X53935806Y-61532287D01*
X54018390Y-61592287D01*
X54083025Y-61625220D01*
X54111080Y-61639515D01*
X54161876Y-61687490D01*
X54178671Y-61755311D01*
X54156134Y-61821446D01*
X54111080Y-61860485D01*
X54018386Y-61907715D01*
X53852786Y-62028028D01*
X53708028Y-62172786D01*
X53587713Y-62338388D01*
X53525769Y-62459959D01*
X53477795Y-62510754D01*
X53409974Y-62527549D01*
X53343839Y-62505011D01*
X53304801Y-62459959D01*
X53212287Y-62278390D01*
X53212285Y-62278387D01*
X53212284Y-62278385D01*
X53091971Y-62112786D01*
X52947213Y-61968028D01*
X52781614Y-61847715D01*
X52712522Y-61812511D01*
X52688917Y-61800483D01*
X52638123Y-61752511D01*
X52621328Y-61684690D01*
X52643865Y-61618555D01*
X52688917Y-61579516D01*
X52781610Y-61532287D01*
X52864634Y-61471967D01*
X52947213Y-61411971D01*
X52947215Y-61411968D01*
X52947219Y-61411966D01*
X53091966Y-61267219D01*
X53091968Y-61267215D01*
X53091971Y-61267213D01*
X53212284Y-61101614D01*
X53212285Y-61101613D01*
X53212287Y-61101610D01*
X53274230Y-60980039D01*
X53282874Y-60970887D01*
X53287609Y-60959221D01*
X53306408Y-60945968D01*
X53322203Y-60929245D01*
X53334425Y-60926218D01*
X53344716Y-60918964D01*
X53367697Y-60917978D01*
X53390024Y-60912450D01*
X53401941Y-60916511D01*
G37*
%TD.AperFunction*%
%TA.AperFunction,NonConductor*%
G36*
X38216159Y-60934987D02*
G01*
X38255198Y-60980040D01*
X38304985Y-61077751D01*
X38347715Y-61161614D01*
X38468028Y-61327213D01*
X38612786Y-61471971D01*
X38695806Y-61532287D01*
X38778390Y-61592287D01*
X38843025Y-61625220D01*
X38871080Y-61639515D01*
X38921876Y-61687490D01*
X38938671Y-61755311D01*
X38916134Y-61821446D01*
X38871080Y-61860485D01*
X38778386Y-61907715D01*
X38612786Y-62028028D01*
X38468028Y-62172786D01*
X38347713Y-62338388D01*
X38285769Y-62459959D01*
X38237795Y-62510754D01*
X38169974Y-62527549D01*
X38103839Y-62505011D01*
X38064801Y-62459959D01*
X37972287Y-62278390D01*
X37972285Y-62278387D01*
X37972284Y-62278385D01*
X37851971Y-62112786D01*
X37707213Y-61968028D01*
X37541614Y-61847715D01*
X37472522Y-61812511D01*
X37448917Y-61800483D01*
X37398123Y-61752511D01*
X37381328Y-61684690D01*
X37403865Y-61618555D01*
X37448917Y-61579516D01*
X37541610Y-61532287D01*
X37624634Y-61471967D01*
X37707213Y-61411971D01*
X37707215Y-61411968D01*
X37707219Y-61411966D01*
X37851966Y-61267219D01*
X37851968Y-61267215D01*
X37851971Y-61267213D01*
X37972284Y-61101614D01*
X37972285Y-61101613D01*
X37972287Y-61101610D01*
X38034230Y-60980039D01*
X38082203Y-60929245D01*
X38150024Y-60912450D01*
X38216159Y-60934987D01*
G37*
%TD.AperFunction*%
%TA.AperFunction,NonConductor*%
G36*
X55818834Y-63842865D02*
G01*
X55874767Y-63884737D01*
X55899184Y-63950201D01*
X55899500Y-63959047D01*
X55899500Y-64620953D01*
X55879815Y-64687992D01*
X55827011Y-64733747D01*
X55757853Y-64743691D01*
X55694297Y-64714666D01*
X55687819Y-64708634D01*
X55547213Y-64568028D01*
X55381614Y-64447715D01*
X55375006Y-64444348D01*
X55288917Y-64400483D01*
X55238123Y-64352511D01*
X55221328Y-64284690D01*
X55243865Y-64218555D01*
X55288917Y-64179516D01*
X55381610Y-64132287D01*
X55464198Y-64072284D01*
X55547213Y-64011971D01*
X55547215Y-64011968D01*
X55547219Y-64011966D01*
X55687819Y-63871366D01*
X55749142Y-63837881D01*
X55818834Y-63842865D01*
G37*
%TD.AperFunction*%
%TA.AperFunction,NonConductor*%
G36*
X40796945Y-63572697D02*
G01*
X40840397Y-63627412D01*
X40849500Y-63674046D01*
X40849500Y-64905953D01*
X40829815Y-64972992D01*
X40777011Y-65018747D01*
X40707853Y-65028691D01*
X40644297Y-64999666D01*
X40615015Y-64962248D01*
X40609291Y-64951015D01*
X40572287Y-64878390D01*
X40528692Y-64818386D01*
X40451971Y-64712786D01*
X40307213Y-64568028D01*
X40141614Y-64447715D01*
X40135006Y-64444348D01*
X40048917Y-64400483D01*
X39998123Y-64352511D01*
X39981328Y-64284690D01*
X40003865Y-64218555D01*
X40048917Y-64179516D01*
X40141610Y-64132287D01*
X40224198Y-64072284D01*
X40307213Y-64011971D01*
X40307215Y-64011968D01*
X40307219Y-64011966D01*
X40451966Y-63867219D01*
X40451968Y-63867215D01*
X40451971Y-63867213D01*
X40572284Y-63701614D01*
X40572283Y-63701614D01*
X40572287Y-63701610D01*
X40615015Y-63617750D01*
X40662989Y-63566955D01*
X40730810Y-63550160D01*
X40796945Y-63572697D01*
G37*
%TD.AperFunction*%
%TA.AperFunction,NonConductor*%
G36*
X53401941Y-63456511D02*
G01*
X53414521Y-63455972D01*
X53434386Y-63467567D01*
X53456159Y-63474987D01*
X53465433Y-63485689D01*
X53474863Y-63491194D01*
X53495198Y-63520040D01*
X53544985Y-63617751D01*
X53587715Y-63701614D01*
X53708028Y-63867213D01*
X53852786Y-64011971D01*
X53935806Y-64072287D01*
X54018390Y-64132287D01*
X54083025Y-64165220D01*
X54111080Y-64179515D01*
X54161876Y-64227490D01*
X54178671Y-64295311D01*
X54156134Y-64361446D01*
X54111080Y-64400485D01*
X54018386Y-64447715D01*
X53852786Y-64568028D01*
X53708028Y-64712786D01*
X53587713Y-64878388D01*
X53525769Y-64999959D01*
X53477795Y-65050754D01*
X53409974Y-65067549D01*
X53343839Y-65045011D01*
X53304801Y-64999959D01*
X53212287Y-64818390D01*
X53212285Y-64818387D01*
X53212284Y-64818385D01*
X53091971Y-64652786D01*
X52947213Y-64508028D01*
X52781614Y-64387715D01*
X52712522Y-64352511D01*
X52688917Y-64340483D01*
X52638123Y-64292511D01*
X52621328Y-64224690D01*
X52643865Y-64158555D01*
X52688917Y-64119516D01*
X52781610Y-64072287D01*
X52864634Y-64011967D01*
X52947213Y-63951971D01*
X52947215Y-63951968D01*
X52947219Y-63951966D01*
X53091966Y-63807219D01*
X53091968Y-63807215D01*
X53091971Y-63807213D01*
X53212284Y-63641614D01*
X53212285Y-63641613D01*
X53212287Y-63641610D01*
X53274230Y-63520039D01*
X53282874Y-63510887D01*
X53287609Y-63499221D01*
X53306408Y-63485968D01*
X53322203Y-63469245D01*
X53334425Y-63466218D01*
X53344716Y-63458964D01*
X53367697Y-63457978D01*
X53390024Y-63452450D01*
X53401941Y-63456511D01*
G37*
%TD.AperFunction*%
%TA.AperFunction,NonConductor*%
G36*
X38216159Y-63474987D02*
G01*
X38255198Y-63520040D01*
X38304985Y-63617751D01*
X38347715Y-63701614D01*
X38468028Y-63867213D01*
X38612786Y-64011971D01*
X38695806Y-64072287D01*
X38778390Y-64132287D01*
X38843025Y-64165220D01*
X38871080Y-64179515D01*
X38921876Y-64227490D01*
X38938671Y-64295311D01*
X38916134Y-64361446D01*
X38871080Y-64400485D01*
X38778386Y-64447715D01*
X38612786Y-64568028D01*
X38468028Y-64712786D01*
X38347713Y-64878388D01*
X38285769Y-64999959D01*
X38237795Y-65050754D01*
X38169974Y-65067549D01*
X38103839Y-65045011D01*
X38064801Y-64999959D01*
X37972287Y-64818390D01*
X37972285Y-64818387D01*
X37972284Y-64818385D01*
X37851971Y-64652786D01*
X37707213Y-64508028D01*
X37541614Y-64387715D01*
X37472522Y-64352511D01*
X37448917Y-64340483D01*
X37398123Y-64292511D01*
X37381328Y-64224690D01*
X37403865Y-64158555D01*
X37448917Y-64119516D01*
X37541610Y-64072287D01*
X37624634Y-64011967D01*
X37707213Y-63951971D01*
X37707215Y-63951968D01*
X37707219Y-63951966D01*
X37851966Y-63807219D01*
X37851968Y-63807215D01*
X37851971Y-63807213D01*
X37972284Y-63641614D01*
X37972285Y-63641613D01*
X37972287Y-63641610D01*
X38034230Y-63520039D01*
X38082203Y-63469245D01*
X38150024Y-63452450D01*
X38216159Y-63474987D01*
G37*
%TD.AperFunction*%
%TA.AperFunction,NonConductor*%
G36*
X55818834Y-66382865D02*
G01*
X55874767Y-66424737D01*
X55899184Y-66490201D01*
X55899500Y-66499047D01*
X55899500Y-67160953D01*
X55879815Y-67227992D01*
X55827011Y-67273747D01*
X55757853Y-67283691D01*
X55694297Y-67254666D01*
X55687819Y-67248634D01*
X55547213Y-67108028D01*
X55381614Y-66987715D01*
X55375006Y-66984348D01*
X55288917Y-66940483D01*
X55238123Y-66892511D01*
X55221328Y-66824690D01*
X55243865Y-66758555D01*
X55288917Y-66719516D01*
X55381610Y-66672287D01*
X55451984Y-66621158D01*
X55547213Y-66551971D01*
X55547215Y-66551968D01*
X55547219Y-66551966D01*
X55687819Y-66411366D01*
X55749142Y-66377881D01*
X55818834Y-66382865D01*
G37*
%TD.AperFunction*%
%TA.AperFunction,NonConductor*%
G36*
X53456159Y-66014987D02*
G01*
X53495198Y-66060040D01*
X53504457Y-66078211D01*
X53587715Y-66241614D01*
X53708028Y-66407213D01*
X53852786Y-66551971D01*
X53948016Y-66621158D01*
X54018390Y-66672287D01*
X54083025Y-66705220D01*
X54111080Y-66719515D01*
X54161876Y-66767490D01*
X54178671Y-66835311D01*
X54156134Y-66901446D01*
X54111080Y-66940485D01*
X54018386Y-66987715D01*
X53852786Y-67108028D01*
X53708028Y-67252786D01*
X53587713Y-67418388D01*
X53525769Y-67539959D01*
X53477795Y-67590754D01*
X53409974Y-67607549D01*
X53343839Y-67585011D01*
X53304801Y-67539959D01*
X53212287Y-67358390D01*
X53212285Y-67358387D01*
X53212284Y-67358385D01*
X53091971Y-67192786D01*
X52947213Y-67048028D01*
X52781614Y-66927715D01*
X52712522Y-66892511D01*
X52688917Y-66880483D01*
X52638123Y-66832511D01*
X52621328Y-66764690D01*
X52643865Y-66698555D01*
X52688917Y-66659516D01*
X52781610Y-66612287D01*
X52864634Y-66551967D01*
X52947213Y-66491971D01*
X52947215Y-66491968D01*
X52947219Y-66491966D01*
X53091966Y-66347219D01*
X53091968Y-66347215D01*
X53091971Y-66347213D01*
X53212284Y-66181614D01*
X53212285Y-66181613D01*
X53212287Y-66181610D01*
X53274230Y-66060039D01*
X53322203Y-66009245D01*
X53390024Y-65992450D01*
X53456159Y-66014987D01*
G37*
%TD.AperFunction*%
%TA.AperFunction,NonConductor*%
G36*
X55818834Y-68922865D02*
G01*
X55874767Y-68964737D01*
X55899184Y-69030201D01*
X55899500Y-69039047D01*
X55899500Y-69700953D01*
X55879815Y-69767992D01*
X55827011Y-69813747D01*
X55757853Y-69823691D01*
X55694297Y-69794666D01*
X55687819Y-69788634D01*
X55547213Y-69648028D01*
X55381614Y-69527715D01*
X55375006Y-69524348D01*
X55288917Y-69480483D01*
X55238123Y-69432511D01*
X55221328Y-69364690D01*
X55243865Y-69298555D01*
X55288917Y-69259516D01*
X55381610Y-69212287D01*
X55464198Y-69152284D01*
X55547213Y-69091971D01*
X55547215Y-69091968D01*
X55547219Y-69091966D01*
X55687819Y-68951366D01*
X55749142Y-68917881D01*
X55818834Y-68922865D01*
G37*
%TD.AperFunction*%
%TA.AperFunction,NonConductor*%
G36*
X53401941Y-68536511D02*
G01*
X53414521Y-68535972D01*
X53434386Y-68547567D01*
X53456159Y-68554987D01*
X53465433Y-68565689D01*
X53474863Y-68571194D01*
X53495199Y-68600041D01*
X53587715Y-68781614D01*
X53708028Y-68947213D01*
X53852786Y-69091971D01*
X53935806Y-69152287D01*
X54018390Y-69212287D01*
X54083025Y-69245220D01*
X54111080Y-69259515D01*
X54161876Y-69307490D01*
X54178671Y-69375311D01*
X54156134Y-69441446D01*
X54111080Y-69480485D01*
X54018386Y-69527715D01*
X53852786Y-69648028D01*
X53708028Y-69792786D01*
X53587713Y-69958388D01*
X53525769Y-70079959D01*
X53477795Y-70130754D01*
X53409974Y-70147549D01*
X53343839Y-70125011D01*
X53304801Y-70079959D01*
X53212287Y-69898390D01*
X53212285Y-69898387D01*
X53212284Y-69898385D01*
X53091971Y-69732786D01*
X52947213Y-69588028D01*
X52781614Y-69467715D01*
X52712522Y-69432511D01*
X52688917Y-69420483D01*
X52638123Y-69372511D01*
X52621328Y-69304690D01*
X52643865Y-69238555D01*
X52688917Y-69199516D01*
X52781610Y-69152287D01*
X52864634Y-69091967D01*
X52947213Y-69031971D01*
X52947215Y-69031968D01*
X52947219Y-69031966D01*
X53091966Y-68887219D01*
X53091968Y-68887215D01*
X53091971Y-68887213D01*
X53212284Y-68721614D01*
X53212285Y-68721613D01*
X53212287Y-68721610D01*
X53274230Y-68600039D01*
X53282874Y-68590887D01*
X53287609Y-68579221D01*
X53306408Y-68565968D01*
X53322203Y-68549245D01*
X53334425Y-68546218D01*
X53344716Y-68538964D01*
X53367697Y-68537978D01*
X53390024Y-68532450D01*
X53401941Y-68536511D01*
G37*
%TD.AperFunction*%
%TA.AperFunction,NonConductor*%
G36*
X38216159Y-68554987D02*
G01*
X38255199Y-68600041D01*
X38347715Y-68781614D01*
X38468028Y-68947213D01*
X38612786Y-69091971D01*
X38695806Y-69152287D01*
X38778390Y-69212287D01*
X38843025Y-69245220D01*
X38871080Y-69259515D01*
X38921876Y-69307490D01*
X38938671Y-69375311D01*
X38916134Y-69441446D01*
X38871080Y-69480485D01*
X38778386Y-69527715D01*
X38612786Y-69648028D01*
X38468028Y-69792786D01*
X38347713Y-69958388D01*
X38285769Y-70079959D01*
X38237795Y-70130754D01*
X38169974Y-70147549D01*
X38103839Y-70125011D01*
X38064801Y-70079959D01*
X37972287Y-69898390D01*
X37972285Y-69898387D01*
X37972284Y-69898385D01*
X37851971Y-69732786D01*
X37707213Y-69588028D01*
X37541614Y-69467715D01*
X37472522Y-69432511D01*
X37448917Y-69420483D01*
X37398123Y-69372511D01*
X37381328Y-69304690D01*
X37403865Y-69238555D01*
X37448917Y-69199516D01*
X37541610Y-69152287D01*
X37624634Y-69091967D01*
X37707213Y-69031971D01*
X37707215Y-69031968D01*
X37707219Y-69031966D01*
X37851966Y-68887219D01*
X37851968Y-68887215D01*
X37851971Y-68887213D01*
X37972284Y-68721614D01*
X37972285Y-68721613D01*
X37972287Y-68721610D01*
X38034230Y-68600039D01*
X38082203Y-68549245D01*
X38150024Y-68532450D01*
X38216159Y-68554987D01*
G37*
%TD.AperFunction*%
%TA.AperFunction,NonConductor*%
G36*
X55818834Y-71462865D02*
G01*
X55874767Y-71504737D01*
X55899184Y-71570201D01*
X55899500Y-71579047D01*
X55899500Y-72240953D01*
X55879815Y-72307992D01*
X55827011Y-72353747D01*
X55757853Y-72363691D01*
X55694297Y-72334666D01*
X55687819Y-72328634D01*
X55547213Y-72188028D01*
X55381614Y-72067715D01*
X55375006Y-72064348D01*
X55288917Y-72020483D01*
X55238123Y-71972511D01*
X55221328Y-71904690D01*
X55243865Y-71838555D01*
X55288917Y-71799516D01*
X55381610Y-71752287D01*
X55464198Y-71692284D01*
X55547213Y-71631971D01*
X55547215Y-71631968D01*
X55547219Y-71631966D01*
X55687819Y-71491366D01*
X55749142Y-71457881D01*
X55818834Y-71462865D01*
G37*
%TD.AperFunction*%
%TA.AperFunction,NonConductor*%
G36*
X53401941Y-71076511D02*
G01*
X53414521Y-71075972D01*
X53434386Y-71087567D01*
X53456159Y-71094987D01*
X53465433Y-71105689D01*
X53474863Y-71111194D01*
X53495199Y-71140041D01*
X53587715Y-71321614D01*
X53708028Y-71487213D01*
X53852786Y-71631971D01*
X53935806Y-71692287D01*
X54018390Y-71752287D01*
X54083025Y-71785220D01*
X54111080Y-71799515D01*
X54161876Y-71847490D01*
X54178671Y-71915311D01*
X54156134Y-71981446D01*
X54111080Y-72020485D01*
X54018386Y-72067715D01*
X53852786Y-72188028D01*
X53708028Y-72332786D01*
X53587713Y-72498388D01*
X53525769Y-72619959D01*
X53477795Y-72670754D01*
X53409974Y-72687549D01*
X53343839Y-72665011D01*
X53304801Y-72619959D01*
X53212287Y-72438390D01*
X53212285Y-72438387D01*
X53212284Y-72438385D01*
X53091971Y-72272786D01*
X52947213Y-72128028D01*
X52781614Y-72007715D01*
X52712522Y-71972511D01*
X52688917Y-71960483D01*
X52638123Y-71912511D01*
X52621328Y-71844690D01*
X52643865Y-71778555D01*
X52688917Y-71739516D01*
X52781610Y-71692287D01*
X52864634Y-71631967D01*
X52947213Y-71571971D01*
X52947215Y-71571968D01*
X52947219Y-71571966D01*
X53091966Y-71427219D01*
X53091968Y-71427215D01*
X53091971Y-71427213D01*
X53212284Y-71261614D01*
X53212285Y-71261613D01*
X53212287Y-71261610D01*
X53274230Y-71140039D01*
X53282874Y-71130887D01*
X53287609Y-71119221D01*
X53306408Y-71105968D01*
X53322203Y-71089245D01*
X53334425Y-71086218D01*
X53344716Y-71078964D01*
X53367697Y-71077978D01*
X53390024Y-71072450D01*
X53401941Y-71076511D01*
G37*
%TD.AperFunction*%
%TA.AperFunction,NonConductor*%
G36*
X38216159Y-71094987D02*
G01*
X38255199Y-71140041D01*
X38347715Y-71321614D01*
X38468028Y-71487213D01*
X38612786Y-71631971D01*
X38695806Y-71692287D01*
X38778390Y-71752287D01*
X38843025Y-71785220D01*
X38871080Y-71799515D01*
X38921876Y-71847490D01*
X38938671Y-71915311D01*
X38916134Y-71981446D01*
X38871080Y-72020485D01*
X38778386Y-72067715D01*
X38612786Y-72188028D01*
X38468028Y-72332786D01*
X38347713Y-72498388D01*
X38285769Y-72619959D01*
X38237795Y-72670754D01*
X38169974Y-72687549D01*
X38103839Y-72665011D01*
X38064801Y-72619959D01*
X37972287Y-72438390D01*
X37972285Y-72438387D01*
X37972284Y-72438385D01*
X37851971Y-72272786D01*
X37707213Y-72128028D01*
X37541614Y-72007715D01*
X37472522Y-71972511D01*
X37448917Y-71960483D01*
X37398123Y-71912511D01*
X37381328Y-71844690D01*
X37403865Y-71778555D01*
X37448917Y-71739516D01*
X37541610Y-71692287D01*
X37624634Y-71631967D01*
X37707213Y-71571971D01*
X37707215Y-71571968D01*
X37707219Y-71571966D01*
X37851966Y-71427219D01*
X37851968Y-71427215D01*
X37851971Y-71427213D01*
X37972284Y-71261614D01*
X37972285Y-71261613D01*
X37972287Y-71261610D01*
X38034230Y-71140039D01*
X38082203Y-71089245D01*
X38150024Y-71072450D01*
X38216159Y-71094987D01*
G37*
%TD.AperFunction*%
%TA.AperFunction,NonConductor*%
G36*
X55818834Y-74002865D02*
G01*
X55874767Y-74044737D01*
X55899184Y-74110201D01*
X55899500Y-74119047D01*
X55899500Y-74780953D01*
X55879815Y-74847992D01*
X55827011Y-74893747D01*
X55757853Y-74903691D01*
X55694297Y-74874666D01*
X55687819Y-74868634D01*
X55547213Y-74728028D01*
X55381614Y-74607715D01*
X55375006Y-74604348D01*
X55288917Y-74560483D01*
X55238123Y-74512511D01*
X55221328Y-74444690D01*
X55243865Y-74378555D01*
X55288917Y-74339516D01*
X55381610Y-74292287D01*
X55464198Y-74232284D01*
X55547213Y-74171971D01*
X55547215Y-74171968D01*
X55547219Y-74171966D01*
X55687819Y-74031366D01*
X55749142Y-73997881D01*
X55818834Y-74002865D01*
G37*
%TD.AperFunction*%
%TA.AperFunction,NonConductor*%
G36*
X53401941Y-73616511D02*
G01*
X53414521Y-73615972D01*
X53434386Y-73627567D01*
X53456159Y-73634987D01*
X53465433Y-73645689D01*
X53474863Y-73651194D01*
X53495199Y-73680041D01*
X53587715Y-73861614D01*
X53708028Y-74027213D01*
X53852786Y-74171971D01*
X53935806Y-74232287D01*
X54018390Y-74292287D01*
X54083025Y-74325220D01*
X54111080Y-74339515D01*
X54161876Y-74387490D01*
X54178671Y-74455311D01*
X54156134Y-74521446D01*
X54111080Y-74560485D01*
X54018386Y-74607715D01*
X53852786Y-74728028D01*
X53708028Y-74872786D01*
X53587713Y-75038388D01*
X53525769Y-75159959D01*
X53477795Y-75210754D01*
X53409974Y-75227549D01*
X53343839Y-75205011D01*
X53304801Y-75159959D01*
X53212287Y-74978390D01*
X53212285Y-74978387D01*
X53212284Y-74978385D01*
X53091971Y-74812786D01*
X52947213Y-74668028D01*
X52781614Y-74547715D01*
X52712522Y-74512511D01*
X52688917Y-74500483D01*
X52638123Y-74452511D01*
X52621328Y-74384690D01*
X52643865Y-74318555D01*
X52688917Y-74279516D01*
X52781610Y-74232287D01*
X52864634Y-74171967D01*
X52947213Y-74111971D01*
X52947215Y-74111968D01*
X52947219Y-74111966D01*
X53091966Y-73967219D01*
X53091968Y-73967215D01*
X53091971Y-73967213D01*
X53212284Y-73801614D01*
X53212285Y-73801613D01*
X53212287Y-73801610D01*
X53274230Y-73680039D01*
X53282874Y-73670887D01*
X53287609Y-73659221D01*
X53306408Y-73645968D01*
X53322203Y-73629245D01*
X53334425Y-73626218D01*
X53344716Y-73618964D01*
X53367697Y-73617978D01*
X53390024Y-73612450D01*
X53401941Y-73616511D01*
G37*
%TD.AperFunction*%
%TA.AperFunction,NonConductor*%
G36*
X38216159Y-73634987D02*
G01*
X38255199Y-73680041D01*
X38347715Y-73861614D01*
X38468028Y-74027213D01*
X38612786Y-74171971D01*
X38695806Y-74232287D01*
X38778390Y-74292287D01*
X38843025Y-74325220D01*
X38871080Y-74339515D01*
X38921876Y-74387490D01*
X38938671Y-74455311D01*
X38916134Y-74521446D01*
X38871080Y-74560485D01*
X38778386Y-74607715D01*
X38612786Y-74728028D01*
X38468028Y-74872786D01*
X38347713Y-75038388D01*
X38285769Y-75159959D01*
X38237795Y-75210754D01*
X38169974Y-75227549D01*
X38103839Y-75205011D01*
X38064801Y-75159959D01*
X37972287Y-74978390D01*
X37972285Y-74978387D01*
X37972284Y-74978385D01*
X37851971Y-74812786D01*
X37707213Y-74668028D01*
X37541614Y-74547715D01*
X37472522Y-74512511D01*
X37448917Y-74500483D01*
X37398123Y-74452511D01*
X37381328Y-74384690D01*
X37403865Y-74318555D01*
X37448917Y-74279516D01*
X37541610Y-74232287D01*
X37624634Y-74171967D01*
X37707213Y-74111971D01*
X37707215Y-74111968D01*
X37707219Y-74111966D01*
X37851966Y-73967219D01*
X37851968Y-73967215D01*
X37851971Y-73967213D01*
X37972284Y-73801614D01*
X37972285Y-73801613D01*
X37972287Y-73801610D01*
X38034230Y-73680039D01*
X38082203Y-73629245D01*
X38150024Y-73612450D01*
X38216159Y-73634987D01*
G37*
%TD.AperFunction*%
%TA.AperFunction,NonConductor*%
G36*
X55818834Y-76542865D02*
G01*
X55874767Y-76584737D01*
X55899184Y-76650201D01*
X55899500Y-76659047D01*
X55899500Y-77006659D01*
X55879815Y-77073698D01*
X55827011Y-77119453D01*
X55757853Y-77129397D01*
X55710404Y-77112198D01*
X55569340Y-77025189D01*
X55569336Y-77025187D01*
X55569334Y-77025186D01*
X55487427Y-76998044D01*
X55429984Y-76958272D01*
X55403161Y-76893756D01*
X55415476Y-76824980D01*
X55453547Y-76780021D01*
X55547219Y-76711966D01*
X55687819Y-76571366D01*
X55749142Y-76537881D01*
X55818834Y-76542865D01*
G37*
%TD.AperFunction*%
%TA.AperFunction,NonConductor*%
G36*
X53456159Y-76174987D02*
G01*
X53495199Y-76220041D01*
X53587715Y-76401614D01*
X53708028Y-76567213D01*
X53708034Y-76567219D01*
X53852781Y-76711966D01*
X53946452Y-76780021D01*
X53989117Y-76835350D01*
X53995096Y-76904963D01*
X53962491Y-76966759D01*
X53912571Y-76998045D01*
X53830666Y-77025186D01*
X53830663Y-77025187D01*
X53681342Y-77117289D01*
X53557288Y-77241343D01*
X53557285Y-77241347D01*
X53524042Y-77295243D01*
X53472094Y-77341968D01*
X53403132Y-77353189D01*
X53339050Y-77325346D01*
X53312965Y-77295243D01*
X53242712Y-77181344D01*
X53118656Y-77057288D01*
X53000955Y-76984690D01*
X52969336Y-76965187D01*
X52969335Y-76965186D01*
X52969334Y-76965186D01*
X52887427Y-76938044D01*
X52829984Y-76898272D01*
X52803161Y-76833756D01*
X52815476Y-76764980D01*
X52853547Y-76720021D01*
X52947219Y-76651966D01*
X53091966Y-76507219D01*
X53091968Y-76507215D01*
X53091971Y-76507213D01*
X53212284Y-76341614D01*
X53212285Y-76341613D01*
X53212287Y-76341610D01*
X53274230Y-76220039D01*
X53322203Y-76169245D01*
X53390024Y-76152450D01*
X53456159Y-76174987D01*
G37*
%TD.AperFunction*%
%TA.AperFunction,NonConductor*%
G36*
X38161941Y-76156511D02*
G01*
X38174521Y-76155972D01*
X38194386Y-76167567D01*
X38216159Y-76174987D01*
X38225433Y-76185689D01*
X38234863Y-76191194D01*
X38255199Y-76220041D01*
X38347715Y-76401614D01*
X38468028Y-76567213D01*
X38612786Y-76711971D01*
X38760811Y-76819515D01*
X38778390Y-76832287D01*
X38843025Y-76865220D01*
X38871080Y-76879515D01*
X38921876Y-76927490D01*
X38938671Y-76995311D01*
X38916134Y-77061446D01*
X38871080Y-77100485D01*
X38778386Y-77147715D01*
X38612786Y-77268028D01*
X38468028Y-77412786D01*
X38347713Y-77578388D01*
X38285769Y-77699959D01*
X38237795Y-77750754D01*
X38169974Y-77767549D01*
X38103839Y-77745011D01*
X38064801Y-77699959D01*
X37972287Y-77518390D01*
X37972285Y-77518387D01*
X37972284Y-77518385D01*
X37851971Y-77352786D01*
X37707213Y-77208028D01*
X37541614Y-77087715D01*
X37490058Y-77061446D01*
X37448917Y-77040483D01*
X37398123Y-76992511D01*
X37381328Y-76924690D01*
X37403865Y-76858555D01*
X37448917Y-76819516D01*
X37541610Y-76772287D01*
X37624629Y-76711971D01*
X37707213Y-76651971D01*
X37707215Y-76651968D01*
X37707219Y-76651966D01*
X37851966Y-76507219D01*
X37851968Y-76507215D01*
X37851971Y-76507213D01*
X37972284Y-76341614D01*
X37972285Y-76341613D01*
X37972287Y-76341610D01*
X38034230Y-76220039D01*
X38042874Y-76210887D01*
X38047609Y-76199221D01*
X38066408Y-76185968D01*
X38082203Y-76169245D01*
X38094425Y-76166218D01*
X38104716Y-76158964D01*
X38127697Y-76157978D01*
X38150024Y-76152450D01*
X38161941Y-76156511D01*
G37*
%TD.AperFunction*%
%TA.AperFunction,NonConductor*%
G36*
X32571444Y-82368999D02*
G01*
X32610486Y-82414056D01*
X32614951Y-82422820D01*
X32739888Y-82594783D01*
X32740043Y-82594964D01*
X32740080Y-82595046D01*
X32742759Y-82598734D01*
X32741984Y-82599296D01*
X32768616Y-82658724D01*
X32758182Y-82727810D01*
X32712054Y-82780288D01*
X32645756Y-82799500D01*
X32354244Y-82799500D01*
X32287205Y-82779815D01*
X32241450Y-82727011D01*
X32231506Y-82657853D01*
X32258001Y-82599286D01*
X32257241Y-82598734D01*
X32259918Y-82595048D01*
X32259957Y-82594964D01*
X32260099Y-82594796D01*
X32260104Y-82594792D01*
X32385051Y-82422816D01*
X32389514Y-82414054D01*
X32437488Y-82363259D01*
X32505308Y-82346463D01*
X32571444Y-82368999D01*
G37*
%TD.AperFunction*%
%TA.AperFunction,NonConductor*%
G36*
X30031444Y-82368999D02*
G01*
X30070486Y-82414056D01*
X30074951Y-82422820D01*
X30199888Y-82594783D01*
X30200043Y-82594964D01*
X30200080Y-82595046D01*
X30202759Y-82598734D01*
X30201984Y-82599296D01*
X30228616Y-82658724D01*
X30218182Y-82727810D01*
X30172054Y-82780288D01*
X30105756Y-82799500D01*
X29814244Y-82799500D01*
X29747205Y-82779815D01*
X29701450Y-82727011D01*
X29691506Y-82657853D01*
X29718001Y-82599286D01*
X29717241Y-82598734D01*
X29719918Y-82595048D01*
X29719957Y-82594964D01*
X29720099Y-82594796D01*
X29720104Y-82594792D01*
X29845051Y-82422816D01*
X29849514Y-82414054D01*
X29897488Y-82363259D01*
X29965308Y-82346463D01*
X30031444Y-82368999D01*
G37*
%TD.AperFunction*%
%TA.AperFunction,NonConductor*%
G36*
X35927992Y-28820185D02*
G01*
X35973747Y-28872989D01*
X35983691Y-28942147D01*
X35954666Y-29005703D01*
X35948634Y-29012181D01*
X35868032Y-29092782D01*
X35868028Y-29092786D01*
X35747715Y-29258386D01*
X35654781Y-29440776D01*
X35591522Y-29635465D01*
X35559500Y-29837648D01*
X35559500Y-30042351D01*
X35591522Y-30244534D01*
X35654781Y-30439223D01*
X35747715Y-30621613D01*
X35868028Y-30787213D01*
X36012786Y-30931971D01*
X36095371Y-30991971D01*
X36178390Y-31052287D01*
X36269840Y-31098883D01*
X36271080Y-31099515D01*
X36321876Y-31147490D01*
X36338671Y-31215311D01*
X36316134Y-31281446D01*
X36271080Y-31320485D01*
X36178386Y-31367715D01*
X36012786Y-31488028D01*
X35868028Y-31632786D01*
X35747715Y-31798386D01*
X35654781Y-31980776D01*
X35591522Y-32175465D01*
X35559500Y-32377648D01*
X35559500Y-32582351D01*
X35591522Y-32784534D01*
X35654781Y-32979223D01*
X35747715Y-33161613D01*
X35868028Y-33327213D01*
X36012786Y-33471971D01*
X36095371Y-33531971D01*
X36178390Y-33592287D01*
X36269840Y-33638883D01*
X36271080Y-33639515D01*
X36321876Y-33687490D01*
X36338671Y-33755311D01*
X36316134Y-33821446D01*
X36271080Y-33860485D01*
X36178386Y-33907715D01*
X36012786Y-34028028D01*
X35868028Y-34172786D01*
X35747715Y-34338386D01*
X35654781Y-34520776D01*
X35591522Y-34715465D01*
X35559500Y-34917648D01*
X35559500Y-35122351D01*
X35591522Y-35324534D01*
X35654781Y-35519223D01*
X35747715Y-35701613D01*
X35868028Y-35867213D01*
X36012786Y-36011971D01*
X36095371Y-36071971D01*
X36178390Y-36132287D01*
X36269840Y-36178883D01*
X36271080Y-36179515D01*
X36321876Y-36227490D01*
X36338671Y-36295311D01*
X36316134Y-36361446D01*
X36271080Y-36400485D01*
X36178386Y-36447715D01*
X36012786Y-36568028D01*
X35868028Y-36712786D01*
X35747715Y-36878386D01*
X35654781Y-37060776D01*
X35591522Y-37255465D01*
X35559500Y-37457648D01*
X35559500Y-37662351D01*
X35591522Y-37864534D01*
X35654781Y-38059223D01*
X35747715Y-38241613D01*
X35868028Y-38407213D01*
X36012786Y-38551971D01*
X36095371Y-38611971D01*
X36178390Y-38672287D01*
X36269840Y-38718883D01*
X36271080Y-38719515D01*
X36321876Y-38767490D01*
X36338671Y-38835311D01*
X36316134Y-38901446D01*
X36271080Y-38940485D01*
X36178386Y-38987715D01*
X36012786Y-39108028D01*
X35868028Y-39252786D01*
X35747715Y-39418386D01*
X35654781Y-39600776D01*
X35591522Y-39795465D01*
X35559500Y-39997648D01*
X35559500Y-40202351D01*
X35591522Y-40404534D01*
X35654781Y-40599223D01*
X35747715Y-40781613D01*
X35868028Y-40947213D01*
X36012786Y-41091971D01*
X36095371Y-41151971D01*
X36178390Y-41212287D01*
X36269840Y-41258883D01*
X36271080Y-41259515D01*
X36321876Y-41307490D01*
X36338671Y-41375311D01*
X36316134Y-41441446D01*
X36271080Y-41480485D01*
X36178386Y-41527715D01*
X36012786Y-41648028D01*
X35868028Y-41792786D01*
X35747715Y-41958386D01*
X35654781Y-42140776D01*
X35591522Y-42335465D01*
X35559500Y-42537648D01*
X35559500Y-42742351D01*
X35591522Y-42944534D01*
X35654781Y-43139223D01*
X35747715Y-43321613D01*
X35868028Y-43487213D01*
X36012786Y-43631971D01*
X36095371Y-43691971D01*
X36178390Y-43752287D01*
X36269840Y-43798883D01*
X36271080Y-43799515D01*
X36321876Y-43847490D01*
X36338671Y-43915311D01*
X36316134Y-43981446D01*
X36271080Y-44020485D01*
X36178386Y-44067715D01*
X36012786Y-44188028D01*
X35868028Y-44332786D01*
X35747715Y-44498386D01*
X35654781Y-44680776D01*
X35591522Y-44875465D01*
X35559500Y-45077648D01*
X35559500Y-45282351D01*
X35591522Y-45484534D01*
X35654781Y-45679223D01*
X35747715Y-45861613D01*
X35868028Y-46027213D01*
X36012786Y-46171971D01*
X36095371Y-46231971D01*
X36178390Y-46292287D01*
X36269840Y-46338883D01*
X36271080Y-46339515D01*
X36321876Y-46387490D01*
X36338671Y-46455311D01*
X36316134Y-46521446D01*
X36271080Y-46560485D01*
X36178386Y-46607715D01*
X36012786Y-46728028D01*
X35868028Y-46872786D01*
X35747715Y-47038386D01*
X35654781Y-47220776D01*
X35591522Y-47415465D01*
X35559500Y-47617648D01*
X35559500Y-47822351D01*
X35591522Y-48024534D01*
X35654781Y-48219223D01*
X35747715Y-48401613D01*
X35868028Y-48567213D01*
X36012786Y-48711971D01*
X36095371Y-48771971D01*
X36178390Y-48832287D01*
X36269840Y-48878883D01*
X36271080Y-48879515D01*
X36321876Y-48927490D01*
X36338671Y-48995311D01*
X36316134Y-49061446D01*
X36271080Y-49100485D01*
X36178386Y-49147715D01*
X36012786Y-49268028D01*
X35868028Y-49412786D01*
X35747715Y-49578386D01*
X35654781Y-49760776D01*
X35591522Y-49955465D01*
X35559500Y-50157648D01*
X35559500Y-50362351D01*
X35591522Y-50564534D01*
X35654781Y-50759223D01*
X35747715Y-50941613D01*
X35868028Y-51107213D01*
X36012786Y-51251971D01*
X36095371Y-51311971D01*
X36178390Y-51372287D01*
X36269840Y-51418883D01*
X36271080Y-51419515D01*
X36321876Y-51467490D01*
X36338671Y-51535311D01*
X36316134Y-51601446D01*
X36271080Y-51640485D01*
X36178386Y-51687715D01*
X36012786Y-51808028D01*
X35868028Y-51952786D01*
X35747715Y-52118386D01*
X35654781Y-52300776D01*
X35591522Y-52495465D01*
X35559500Y-52697648D01*
X35559500Y-52902351D01*
X35591522Y-53104534D01*
X35654781Y-53299223D01*
X35747715Y-53481613D01*
X35868028Y-53647213D01*
X36012786Y-53791971D01*
X36095371Y-53851971D01*
X36178390Y-53912287D01*
X36269840Y-53958883D01*
X36271080Y-53959515D01*
X36321876Y-54007490D01*
X36338671Y-54075311D01*
X36316134Y-54141446D01*
X36271080Y-54180485D01*
X36178386Y-54227715D01*
X36012786Y-54348028D01*
X35868028Y-54492786D01*
X35747715Y-54658386D01*
X35654781Y-54840776D01*
X35591522Y-55035465D01*
X35559500Y-55237648D01*
X35559500Y-55442351D01*
X35591522Y-55644534D01*
X35654781Y-55839223D01*
X35747715Y-56021613D01*
X35868028Y-56187213D01*
X36012786Y-56331971D01*
X36095371Y-56391971D01*
X36178390Y-56452287D01*
X36269840Y-56498883D01*
X36271080Y-56499515D01*
X36321876Y-56547490D01*
X36338671Y-56615311D01*
X36316134Y-56681446D01*
X36271080Y-56720485D01*
X36178386Y-56767715D01*
X36012786Y-56888028D01*
X35868028Y-57032786D01*
X35747715Y-57198386D01*
X35654781Y-57380776D01*
X35591522Y-57575465D01*
X35559500Y-57777648D01*
X35559500Y-57982351D01*
X35591522Y-58184534D01*
X35654781Y-58379223D01*
X35747715Y-58561613D01*
X35868028Y-58727213D01*
X36012786Y-58871971D01*
X36095371Y-58931971D01*
X36178390Y-58992287D01*
X36269840Y-59038883D01*
X36271080Y-59039515D01*
X36321876Y-59087490D01*
X36338671Y-59155311D01*
X36316134Y-59221446D01*
X36271080Y-59260485D01*
X36178386Y-59307715D01*
X36012786Y-59428028D01*
X35868028Y-59572786D01*
X35747715Y-59738386D01*
X35654781Y-59920776D01*
X35591522Y-60115465D01*
X35559500Y-60317648D01*
X35559500Y-60522351D01*
X35591522Y-60724534D01*
X35654781Y-60919223D01*
X35747715Y-61101613D01*
X35868028Y-61267213D01*
X36012786Y-61411971D01*
X36095371Y-61471971D01*
X36178390Y-61532287D01*
X36269840Y-61578883D01*
X36271080Y-61579515D01*
X36321876Y-61627490D01*
X36338671Y-61695311D01*
X36316134Y-61761446D01*
X36271080Y-61800485D01*
X36178386Y-61847715D01*
X36012786Y-61968028D01*
X35868028Y-62112786D01*
X35747715Y-62278386D01*
X35654781Y-62460776D01*
X35591522Y-62655465D01*
X35559500Y-62857648D01*
X35559500Y-63062351D01*
X35591522Y-63264534D01*
X35654781Y-63459223D01*
X35747715Y-63641613D01*
X35868028Y-63807213D01*
X36012786Y-63951971D01*
X36095371Y-64011971D01*
X36178390Y-64072287D01*
X36269840Y-64118883D01*
X36271080Y-64119515D01*
X36321876Y-64167490D01*
X36338671Y-64235311D01*
X36316134Y-64301446D01*
X36271080Y-64340485D01*
X36178386Y-64387715D01*
X36012786Y-64508028D01*
X35868028Y-64652786D01*
X35747715Y-64818386D01*
X35654781Y-65000776D01*
X35591522Y-65195465D01*
X35559500Y-65397648D01*
X35559500Y-65602351D01*
X35591523Y-65804535D01*
X35591524Y-65804542D01*
X35602455Y-65838183D01*
X35604450Y-65908024D01*
X35568369Y-65967856D01*
X35505668Y-65998684D01*
X35484524Y-66000500D01*
X29117731Y-66000500D01*
X29070279Y-65991061D01*
X28923501Y-65930264D01*
X28923489Y-65930261D01*
X28768845Y-65899500D01*
X28768842Y-65899500D01*
X28611158Y-65899500D01*
X28611155Y-65899500D01*
X28456510Y-65930261D01*
X28456498Y-65930264D01*
X28310827Y-65990602D01*
X28310814Y-65990609D01*
X28179711Y-66078210D01*
X28179707Y-66078213D01*
X28068213Y-66189707D01*
X28068210Y-66189711D01*
X27980609Y-66320814D01*
X27980602Y-66320827D01*
X27920264Y-66466498D01*
X27920261Y-66466510D01*
X27889500Y-66621153D01*
X27889500Y-66778846D01*
X27920261Y-66933489D01*
X27920264Y-66933501D01*
X27980602Y-67079172D01*
X27980609Y-67079185D01*
X28068210Y-67210288D01*
X28068213Y-67210292D01*
X28179707Y-67321786D01*
X28179711Y-67321789D01*
X28310814Y-67409390D01*
X28310827Y-67409397D01*
X28456493Y-67469733D01*
X28456503Y-67469737D01*
X28611153Y-67500499D01*
X28611156Y-67500500D01*
X28611158Y-67500500D01*
X28650834Y-67500500D01*
X28662985Y-67501097D01*
X28667078Y-67501500D01*
X28667082Y-67501500D01*
X28667083Y-67501500D01*
X28814917Y-67501500D01*
X35496872Y-67501500D01*
X35563911Y-67521185D01*
X35609666Y-67573989D01*
X35619610Y-67643147D01*
X35614803Y-67663819D01*
X35591522Y-67735465D01*
X35559500Y-67937648D01*
X35559500Y-68142351D01*
X35591522Y-68344534D01*
X35654781Y-68539223D01*
X35747715Y-68721613D01*
X35868028Y-68887213D01*
X36012786Y-69031971D01*
X36095371Y-69091971D01*
X36178390Y-69152287D01*
X36269840Y-69198883D01*
X36271080Y-69199515D01*
X36321876Y-69247490D01*
X36338671Y-69315311D01*
X36316134Y-69381446D01*
X36271080Y-69420485D01*
X36178386Y-69467715D01*
X36012786Y-69588028D01*
X35868028Y-69732786D01*
X35747715Y-69898386D01*
X35654781Y-70080776D01*
X35591522Y-70275465D01*
X35559500Y-70477648D01*
X35559500Y-70682351D01*
X35591522Y-70884534D01*
X35654781Y-71079223D01*
X35747715Y-71261613D01*
X35868028Y-71427213D01*
X36012786Y-71571971D01*
X36095371Y-71631971D01*
X36178390Y-71692287D01*
X36269840Y-71738883D01*
X36271080Y-71739515D01*
X36321876Y-71787490D01*
X36338671Y-71855311D01*
X36316134Y-71921446D01*
X36271080Y-71960485D01*
X36178386Y-72007715D01*
X36012786Y-72128028D01*
X35868028Y-72272786D01*
X35747715Y-72438386D01*
X35654781Y-72620776D01*
X35591522Y-72815465D01*
X35559500Y-73017648D01*
X35559500Y-73222351D01*
X35591522Y-73424534D01*
X35654781Y-73619223D01*
X35747715Y-73801613D01*
X35868028Y-73967213D01*
X36012786Y-74111971D01*
X36095371Y-74171971D01*
X36178390Y-74232287D01*
X36269840Y-74278883D01*
X36271080Y-74279515D01*
X36321876Y-74327490D01*
X36338671Y-74395311D01*
X36316134Y-74461446D01*
X36271080Y-74500485D01*
X36178386Y-74547715D01*
X36012786Y-74668028D01*
X35868028Y-74812786D01*
X35747715Y-74978386D01*
X35654781Y-75160776D01*
X35591522Y-75355465D01*
X35559500Y-75557648D01*
X35559500Y-75762351D01*
X35591522Y-75964534D01*
X35654781Y-76159223D01*
X35747715Y-76341613D01*
X35868028Y-76507213D01*
X36012786Y-76651971D01*
X36167749Y-76764556D01*
X36178390Y-76772287D01*
X36269840Y-76818883D01*
X36271080Y-76819515D01*
X36321876Y-76867490D01*
X36338671Y-76935311D01*
X36316134Y-77001446D01*
X36271080Y-77040485D01*
X36178386Y-77087715D01*
X36012786Y-77208028D01*
X35868028Y-77352786D01*
X35747715Y-77518386D01*
X35654781Y-77700776D01*
X35591522Y-77895465D01*
X35559500Y-78097648D01*
X35559500Y-78302351D01*
X35591522Y-78504534D01*
X35654781Y-78699223D01*
X35706140Y-78800018D01*
X35736706Y-78860008D01*
X35747715Y-78881613D01*
X35868028Y-79047213D01*
X36012786Y-79191971D01*
X36167749Y-79304556D01*
X36178390Y-79312287D01*
X36294607Y-79371503D01*
X36360776Y-79405218D01*
X36360778Y-79405218D01*
X36360781Y-79405220D01*
X36451856Y-79434812D01*
X36555465Y-79468477D01*
X36656557Y-79484488D01*
X36757648Y-79500500D01*
X36757649Y-79500500D01*
X36962351Y-79500500D01*
X36962352Y-79500500D01*
X37164534Y-79468477D01*
X37359219Y-79405220D01*
X37541610Y-79312287D01*
X37670482Y-79218657D01*
X37707213Y-79191971D01*
X37707215Y-79191968D01*
X37707219Y-79191966D01*
X37851966Y-79047219D01*
X37851968Y-79047215D01*
X37851971Y-79047213D01*
X37972284Y-78881614D01*
X37972285Y-78881613D01*
X37972287Y-78881610D01*
X38034230Y-78760039D01*
X38082203Y-78709245D01*
X38150024Y-78692450D01*
X38216159Y-78714987D01*
X38255198Y-78760040D01*
X38275563Y-78800008D01*
X38347715Y-78941614D01*
X38468028Y-79107213D01*
X38612786Y-79251971D01*
X38695806Y-79312287D01*
X38778390Y-79372287D01*
X38894607Y-79431503D01*
X38960776Y-79465218D01*
X38960778Y-79465218D01*
X38960781Y-79465220D01*
X39037040Y-79489998D01*
X39155465Y-79528477D01*
X39256557Y-79544488D01*
X39357648Y-79560500D01*
X39357649Y-79560500D01*
X39562351Y-79560500D01*
X39562352Y-79560500D01*
X39764534Y-79528477D01*
X39959219Y-79465220D01*
X40141610Y-79372287D01*
X40270482Y-79278657D01*
X40307213Y-79251971D01*
X40307215Y-79251968D01*
X40307219Y-79251966D01*
X40451966Y-79107219D01*
X40451968Y-79107215D01*
X40451971Y-79107213D01*
X40504732Y-79034590D01*
X40572287Y-78941610D01*
X40665220Y-78759219D01*
X40728477Y-78564534D01*
X40760500Y-78362352D01*
X40760500Y-78157648D01*
X40728477Y-77955466D01*
X40708981Y-77895465D01*
X40665218Y-77760776D01*
X40631503Y-77694607D01*
X40572287Y-77578390D01*
X40528692Y-77518386D01*
X40451971Y-77412786D01*
X40307213Y-77268028D01*
X40141614Y-77147715D01*
X40105663Y-77129397D01*
X40048917Y-77100483D01*
X39998123Y-77052511D01*
X39981328Y-76984690D01*
X40003865Y-76918555D01*
X40048917Y-76879516D01*
X40141610Y-76832287D01*
X40296134Y-76720020D01*
X40307213Y-76711971D01*
X40307215Y-76711968D01*
X40307219Y-76711966D01*
X40451966Y-76567219D01*
X40451968Y-76567215D01*
X40451971Y-76567213D01*
X40504732Y-76494590D01*
X40572287Y-76401610D01*
X40665220Y-76219219D01*
X40728477Y-76024534D01*
X40760500Y-75822352D01*
X40760500Y-75617648D01*
X40728477Y-75415466D01*
X40708981Y-75355465D01*
X40665218Y-75220776D01*
X40631503Y-75154607D01*
X40572287Y-75038390D01*
X40528692Y-74978386D01*
X40451971Y-74872786D01*
X40307213Y-74728028D01*
X40141614Y-74607715D01*
X40135006Y-74604348D01*
X40048917Y-74560483D01*
X39998123Y-74512511D01*
X39981328Y-74444690D01*
X40003865Y-74378555D01*
X40048917Y-74339516D01*
X40141610Y-74292287D01*
X40224198Y-74232284D01*
X40307213Y-74171971D01*
X40307215Y-74171968D01*
X40307219Y-74171966D01*
X40451966Y-74027219D01*
X40451968Y-74027215D01*
X40451971Y-74027213D01*
X40504732Y-73954590D01*
X40572287Y-73861610D01*
X40665220Y-73679219D01*
X40728477Y-73484534D01*
X40760500Y-73282352D01*
X40760500Y-73077648D01*
X40728477Y-72875466D01*
X40708981Y-72815465D01*
X40665218Y-72680776D01*
X40631503Y-72614607D01*
X40572287Y-72498390D01*
X40528692Y-72438386D01*
X40451971Y-72332786D01*
X40307213Y-72188028D01*
X40141614Y-72067715D01*
X40135006Y-72064348D01*
X40048917Y-72020483D01*
X39998123Y-71972511D01*
X39981328Y-71904690D01*
X40003865Y-71838555D01*
X40048917Y-71799516D01*
X40141610Y-71752287D01*
X40224198Y-71692284D01*
X40307213Y-71631971D01*
X40307215Y-71631968D01*
X40307219Y-71631966D01*
X40451966Y-71487219D01*
X40451968Y-71487215D01*
X40451971Y-71487213D01*
X40504732Y-71414590D01*
X40572287Y-71321610D01*
X40665220Y-71139219D01*
X40728477Y-70944534D01*
X40760500Y-70742352D01*
X40760500Y-70537648D01*
X40728477Y-70335466D01*
X40708981Y-70275465D01*
X40665218Y-70140776D01*
X40631503Y-70074607D01*
X40572287Y-69958390D01*
X40528692Y-69898386D01*
X40451971Y-69792786D01*
X40307213Y-69648028D01*
X40141614Y-69527715D01*
X40135006Y-69524348D01*
X40048917Y-69480483D01*
X39998123Y-69432511D01*
X39981328Y-69364690D01*
X40003865Y-69298555D01*
X40048917Y-69259516D01*
X40141610Y-69212287D01*
X40224198Y-69152284D01*
X40307213Y-69091971D01*
X40307215Y-69091968D01*
X40307219Y-69091966D01*
X40451966Y-68947219D01*
X40451968Y-68947215D01*
X40451971Y-68947213D01*
X40504732Y-68874590D01*
X40572287Y-68781610D01*
X40665220Y-68599219D01*
X40728477Y-68404534D01*
X40760500Y-68202352D01*
X40760500Y-67997648D01*
X40728477Y-67795466D01*
X40728475Y-67795462D01*
X40728475Y-67795457D01*
X40717545Y-67761817D01*
X40715550Y-67691976D01*
X40751631Y-67632144D01*
X40814332Y-67601316D01*
X40835476Y-67599500D01*
X41624920Y-67599500D01*
X41753167Y-67573989D01*
X41769913Y-67570658D01*
X41906495Y-67514084D01*
X41972865Y-67469737D01*
X42029416Y-67431952D01*
X42182951Y-67278416D01*
X42265084Y-67155495D01*
X42321658Y-67018913D01*
X42345024Y-66901446D01*
X42350500Y-66873920D01*
X42350500Y-45882228D01*
X42370185Y-45815189D01*
X42386814Y-45794552D01*
X50589067Y-37592298D01*
X50650388Y-37558815D01*
X50720080Y-37563799D01*
X50776013Y-37605671D01*
X50799219Y-37660582D01*
X50831523Y-37864535D01*
X50894781Y-38059223D01*
X50987715Y-38241613D01*
X51108028Y-38407213D01*
X51252786Y-38551971D01*
X51335371Y-38611971D01*
X51418390Y-38672287D01*
X51509840Y-38718883D01*
X51511080Y-38719515D01*
X51561876Y-38767490D01*
X51578671Y-38835311D01*
X51556134Y-38901446D01*
X51511080Y-38940485D01*
X51418386Y-38987715D01*
X51252786Y-39108028D01*
X51108028Y-39252786D01*
X50987715Y-39418386D01*
X50894781Y-39600776D01*
X50831522Y-39795465D01*
X50799500Y-39997648D01*
X50799500Y-40202351D01*
X50831522Y-40404534D01*
X50894781Y-40599223D01*
X50987715Y-40781613D01*
X51108028Y-40947213D01*
X51252786Y-41091971D01*
X51335371Y-41151971D01*
X51418390Y-41212287D01*
X51509840Y-41258883D01*
X51511080Y-41259515D01*
X51561876Y-41307490D01*
X51578671Y-41375311D01*
X51556134Y-41441446D01*
X51511080Y-41480485D01*
X51418386Y-41527715D01*
X51252786Y-41648028D01*
X51108028Y-41792786D01*
X50987715Y-41958386D01*
X50894781Y-42140776D01*
X50831522Y-42335465D01*
X50799500Y-42537648D01*
X50799500Y-42742351D01*
X50831522Y-42944534D01*
X50894781Y-43139223D01*
X50987715Y-43321613D01*
X51108028Y-43487213D01*
X51252786Y-43631971D01*
X51335371Y-43691971D01*
X51418390Y-43752287D01*
X51509840Y-43798883D01*
X51511080Y-43799515D01*
X51561876Y-43847490D01*
X51578671Y-43915311D01*
X51556134Y-43981446D01*
X51511080Y-44020485D01*
X51418386Y-44067715D01*
X51252786Y-44188028D01*
X51108028Y-44332786D01*
X50987715Y-44498386D01*
X50894781Y-44680776D01*
X50831522Y-44875465D01*
X50799500Y-45077648D01*
X50799500Y-45282351D01*
X50831522Y-45484534D01*
X50894781Y-45679223D01*
X50987715Y-45861613D01*
X51108028Y-46027213D01*
X51252786Y-46171971D01*
X51335371Y-46231971D01*
X51418390Y-46292287D01*
X51509840Y-46338883D01*
X51511080Y-46339515D01*
X51561876Y-46387490D01*
X51578671Y-46455311D01*
X51556134Y-46521446D01*
X51511080Y-46560485D01*
X51418386Y-46607715D01*
X51252786Y-46728028D01*
X51108028Y-46872786D01*
X50987715Y-47038386D01*
X50894781Y-47220776D01*
X50831522Y-47415465D01*
X50799500Y-47617648D01*
X50799500Y-47822351D01*
X50831522Y-48024534D01*
X50894781Y-48219223D01*
X50987715Y-48401613D01*
X51108028Y-48567213D01*
X51252786Y-48711971D01*
X51335371Y-48771971D01*
X51418390Y-48832287D01*
X51509840Y-48878883D01*
X51511080Y-48879515D01*
X51561876Y-48927490D01*
X51578671Y-48995311D01*
X51556134Y-49061446D01*
X51511080Y-49100485D01*
X51418386Y-49147715D01*
X51252786Y-49268028D01*
X51108028Y-49412786D01*
X50987715Y-49578386D01*
X50894781Y-49760776D01*
X50831522Y-49955465D01*
X50799500Y-50157648D01*
X50799500Y-50362351D01*
X50831522Y-50564534D01*
X50894781Y-50759223D01*
X50987715Y-50941613D01*
X51108028Y-51107213D01*
X51252786Y-51251971D01*
X51335371Y-51311971D01*
X51418390Y-51372287D01*
X51509840Y-51418883D01*
X51511080Y-51419515D01*
X51561876Y-51467490D01*
X51578671Y-51535311D01*
X51556134Y-51601446D01*
X51511080Y-51640485D01*
X51418386Y-51687715D01*
X51252786Y-51808028D01*
X51108028Y-51952786D01*
X50987715Y-52118386D01*
X50894781Y-52300776D01*
X50831522Y-52495465D01*
X50799500Y-52697648D01*
X50799500Y-52902351D01*
X50831522Y-53104534D01*
X50894781Y-53299223D01*
X50987715Y-53481613D01*
X51108028Y-53647213D01*
X51252786Y-53791971D01*
X51335371Y-53851971D01*
X51418390Y-53912287D01*
X51509840Y-53958883D01*
X51511080Y-53959515D01*
X51561876Y-54007490D01*
X51578671Y-54075311D01*
X51556134Y-54141446D01*
X51511080Y-54180485D01*
X51418386Y-54227715D01*
X51252786Y-54348028D01*
X51108028Y-54492786D01*
X50987715Y-54658386D01*
X50894781Y-54840776D01*
X50831522Y-55035465D01*
X50799500Y-55237648D01*
X50799500Y-55442351D01*
X50831522Y-55644534D01*
X50894781Y-55839223D01*
X50987715Y-56021613D01*
X51108028Y-56187213D01*
X51252786Y-56331971D01*
X51335371Y-56391971D01*
X51418390Y-56452287D01*
X51509840Y-56498883D01*
X51511080Y-56499515D01*
X51561876Y-56547490D01*
X51578671Y-56615311D01*
X51556134Y-56681446D01*
X51511080Y-56720485D01*
X51418386Y-56767715D01*
X51252786Y-56888028D01*
X51108028Y-57032786D01*
X50987715Y-57198386D01*
X50894781Y-57380776D01*
X50831522Y-57575465D01*
X50799500Y-57777648D01*
X50799500Y-57982351D01*
X50831522Y-58184534D01*
X50894781Y-58379223D01*
X50987715Y-58561613D01*
X51108028Y-58727213D01*
X51252786Y-58871971D01*
X51335371Y-58931971D01*
X51418390Y-58992287D01*
X51509840Y-59038883D01*
X51511080Y-59039515D01*
X51561876Y-59087490D01*
X51578671Y-59155311D01*
X51556134Y-59221446D01*
X51511080Y-59260485D01*
X51418386Y-59307715D01*
X51252786Y-59428028D01*
X51108028Y-59572786D01*
X50987715Y-59738386D01*
X50894781Y-59920776D01*
X50831522Y-60115465D01*
X50799500Y-60317648D01*
X50799500Y-60522351D01*
X50831522Y-60724534D01*
X50894781Y-60919223D01*
X50987715Y-61101613D01*
X51108028Y-61267213D01*
X51252786Y-61411971D01*
X51335371Y-61471971D01*
X51418390Y-61532287D01*
X51509840Y-61578883D01*
X51511080Y-61579515D01*
X51561876Y-61627490D01*
X51578671Y-61695311D01*
X51556134Y-61761446D01*
X51511080Y-61800485D01*
X51418386Y-61847715D01*
X51252786Y-61968028D01*
X51108028Y-62112786D01*
X50987715Y-62278386D01*
X50894781Y-62460776D01*
X50831522Y-62655465D01*
X50799500Y-62857648D01*
X50799500Y-63062351D01*
X50831522Y-63264534D01*
X50894781Y-63459223D01*
X50987715Y-63641613D01*
X51108028Y-63807213D01*
X51252786Y-63951971D01*
X51335371Y-64011971D01*
X51418390Y-64072287D01*
X51509840Y-64118883D01*
X51511080Y-64119515D01*
X51561876Y-64167490D01*
X51578671Y-64235311D01*
X51556134Y-64301446D01*
X51511080Y-64340485D01*
X51418386Y-64387715D01*
X51252786Y-64508028D01*
X51108028Y-64652786D01*
X50987715Y-64818386D01*
X50894781Y-65000776D01*
X50831522Y-65195465D01*
X50799500Y-65397648D01*
X50799500Y-65602351D01*
X50831522Y-65804534D01*
X50894781Y-65999223D01*
X50987715Y-66181613D01*
X51108028Y-66347213D01*
X51252786Y-66491971D01*
X51335371Y-66551971D01*
X51418390Y-66612287D01*
X51509840Y-66658883D01*
X51511080Y-66659515D01*
X51561876Y-66707490D01*
X51578671Y-66775311D01*
X51556134Y-66841446D01*
X51511080Y-66880485D01*
X51418386Y-66927715D01*
X51252786Y-67048028D01*
X51108028Y-67192786D01*
X50987715Y-67358386D01*
X50894781Y-67540776D01*
X50831522Y-67735465D01*
X50799500Y-67937648D01*
X50799500Y-68142351D01*
X50831522Y-68344534D01*
X50894781Y-68539223D01*
X50987715Y-68721613D01*
X51108028Y-68887213D01*
X51252786Y-69031971D01*
X51335371Y-69091971D01*
X51418390Y-69152287D01*
X51509840Y-69198883D01*
X51511080Y-69199515D01*
X51561876Y-69247490D01*
X51578671Y-69315311D01*
X51556134Y-69381446D01*
X51511080Y-69420485D01*
X51418386Y-69467715D01*
X51252786Y-69588028D01*
X51108028Y-69732786D01*
X50987715Y-69898386D01*
X50894781Y-70080776D01*
X50831522Y-70275465D01*
X50799500Y-70477648D01*
X50799500Y-70682351D01*
X50831522Y-70884534D01*
X50894781Y-71079223D01*
X50987715Y-71261613D01*
X51108028Y-71427213D01*
X51252786Y-71571971D01*
X51335371Y-71631971D01*
X51418390Y-71692287D01*
X51509840Y-71738883D01*
X51511080Y-71739515D01*
X51561876Y-71787490D01*
X51578671Y-71855311D01*
X51556134Y-71921446D01*
X51511080Y-71960485D01*
X51418386Y-72007715D01*
X51252786Y-72128028D01*
X51108028Y-72272786D01*
X50987715Y-72438386D01*
X50894781Y-72620776D01*
X50831522Y-72815465D01*
X50799500Y-73017648D01*
X50799500Y-73222351D01*
X50831522Y-73424534D01*
X50894781Y-73619223D01*
X50987715Y-73801613D01*
X51108028Y-73967213D01*
X51252786Y-74111971D01*
X51335371Y-74171971D01*
X51418390Y-74232287D01*
X51509840Y-74278883D01*
X51511080Y-74279515D01*
X51561876Y-74327490D01*
X51578671Y-74395311D01*
X51556134Y-74461446D01*
X51511080Y-74500485D01*
X51418386Y-74547715D01*
X51252786Y-74668028D01*
X51108028Y-74812786D01*
X50987715Y-74978386D01*
X50894781Y-75160776D01*
X50831522Y-75355465D01*
X50799500Y-75557648D01*
X50799500Y-75762351D01*
X50831522Y-75964534D01*
X50894781Y-76159223D01*
X50987715Y-76341613D01*
X51108028Y-76507213D01*
X51108034Y-76507219D01*
X51252781Y-76651966D01*
X51346452Y-76720021D01*
X51389117Y-76775350D01*
X51395096Y-76844963D01*
X51362491Y-76906759D01*
X51312571Y-76938045D01*
X51230666Y-76965186D01*
X51230663Y-76965187D01*
X51081342Y-77057289D01*
X50957289Y-77181342D01*
X50865187Y-77330663D01*
X50865185Y-77330668D01*
X50845304Y-77390666D01*
X50810001Y-77497203D01*
X50810001Y-77497204D01*
X50810000Y-77497204D01*
X50799500Y-77599983D01*
X50799500Y-78800001D01*
X50799501Y-78800018D01*
X50810000Y-78902796D01*
X50810001Y-78902799D01*
X50865185Y-79069331D01*
X50865187Y-79069336D01*
X50895223Y-79118032D01*
X50957288Y-79218656D01*
X51081344Y-79342712D01*
X51230666Y-79434814D01*
X51397203Y-79489999D01*
X51499991Y-79500500D01*
X52700008Y-79500499D01*
X52802797Y-79489999D01*
X52969334Y-79434814D01*
X53118656Y-79342712D01*
X53242712Y-79218656D01*
X53275958Y-79164755D01*
X53327902Y-79118032D01*
X53396865Y-79106809D01*
X53460947Y-79134652D01*
X53487034Y-79164756D01*
X53519791Y-79217864D01*
X53557288Y-79278656D01*
X53681344Y-79402712D01*
X53830666Y-79494814D01*
X53997203Y-79549999D01*
X54099991Y-79560500D01*
X55300008Y-79560499D01*
X55402797Y-79549999D01*
X55569334Y-79494814D01*
X55710407Y-79407799D01*
X55777795Y-79389361D01*
X55844459Y-79410283D01*
X55889229Y-79463925D01*
X55899500Y-79513340D01*
X55899500Y-82675500D01*
X55879815Y-82742539D01*
X55827011Y-82788294D01*
X55775500Y-82799500D01*
X37778481Y-82799500D01*
X37711442Y-82779815D01*
X37665687Y-82727011D01*
X37655191Y-82662247D01*
X37660500Y-82612873D01*
X37660499Y-80817128D01*
X37654091Y-80757517D01*
X37652810Y-80754083D01*
X37603797Y-80622671D01*
X37603793Y-80622664D01*
X37517547Y-80507455D01*
X37517544Y-80507452D01*
X37402335Y-80421206D01*
X37402328Y-80421202D01*
X37267482Y-80370908D01*
X37267483Y-80370908D01*
X37207883Y-80364501D01*
X37207881Y-80364500D01*
X37207873Y-80364500D01*
X37207864Y-80364500D01*
X35412129Y-80364500D01*
X35412123Y-80364501D01*
X35352516Y-80370908D01*
X35217671Y-80421202D01*
X35217664Y-80421206D01*
X35102455Y-80507452D01*
X35102452Y-80507455D01*
X35016206Y-80622664D01*
X35016203Y-80622669D01*
X34967189Y-80754083D01*
X34925317Y-80810016D01*
X34859853Y-80834433D01*
X34791580Y-80819581D01*
X34763326Y-80798430D01*
X34649786Y-80684890D01*
X34477820Y-80559951D01*
X34288414Y-80463444D01*
X34288413Y-80463443D01*
X34288412Y-80463443D01*
X34086243Y-80397754D01*
X34086241Y-80397753D01*
X34086240Y-80397753D01*
X33924957Y-80372208D01*
X33876287Y-80364500D01*
X33663713Y-80364500D01*
X33615042Y-80372208D01*
X33453760Y-80397753D01*
X33251585Y-80463444D01*
X33062179Y-80559951D01*
X32890213Y-80684890D01*
X32739890Y-80835213D01*
X32614949Y-81007182D01*
X32610484Y-81015946D01*
X32562509Y-81066742D01*
X32494688Y-81083536D01*
X32428553Y-81060998D01*
X32389516Y-81015946D01*
X32385050Y-81007182D01*
X32260109Y-80835213D01*
X32109786Y-80684890D01*
X31937820Y-80559951D01*
X31748414Y-80463444D01*
X31748413Y-80463443D01*
X31748412Y-80463443D01*
X31546243Y-80397754D01*
X31546241Y-80397753D01*
X31546240Y-80397753D01*
X31384957Y-80372208D01*
X31336287Y-80364500D01*
X31123713Y-80364500D01*
X31075042Y-80372208D01*
X30913760Y-80397753D01*
X30711585Y-80463444D01*
X30522179Y-80559951D01*
X30350213Y-80684890D01*
X30199890Y-80835213D01*
X30074949Y-81007182D01*
X30070484Y-81015946D01*
X30022509Y-81066742D01*
X29954688Y-81083536D01*
X29888553Y-81060998D01*
X29849516Y-81015946D01*
X29845050Y-81007182D01*
X29720109Y-80835213D01*
X29569786Y-80684890D01*
X29397820Y-80559951D01*
X29208414Y-80463444D01*
X29208413Y-80463443D01*
X29208412Y-80463443D01*
X29006243Y-80397754D01*
X29006241Y-80397753D01*
X29006240Y-80397753D01*
X28844957Y-80372208D01*
X28796287Y-80364500D01*
X28583713Y-80364500D01*
X28535042Y-80372208D01*
X28373760Y-80397753D01*
X28171585Y-80463444D01*
X27982179Y-80559951D01*
X27810213Y-80684890D01*
X27659890Y-80835213D01*
X27534951Y-81007179D01*
X27438444Y-81196585D01*
X27372753Y-81398760D01*
X27339500Y-81608713D01*
X27339500Y-81821286D01*
X27372753Y-82031239D01*
X27438444Y-82233414D01*
X27534951Y-82422820D01*
X27659888Y-82594783D01*
X27660043Y-82594964D01*
X27660080Y-82595046D01*
X27662759Y-82598734D01*
X27661984Y-82599296D01*
X27688616Y-82658724D01*
X27678182Y-82727810D01*
X27632054Y-82780288D01*
X27565756Y-82799500D01*
X27024500Y-82799500D01*
X26957461Y-82779815D01*
X26911706Y-82727011D01*
X26900500Y-82675500D01*
X26900500Y-28924500D01*
X26920185Y-28857461D01*
X26972989Y-28811706D01*
X27024500Y-28800500D01*
X35860953Y-28800500D01*
X35927992Y-28820185D01*
G37*
%TD.AperFunction*%
M02*
