%TF.GenerationSoftware,KiCad,Pcbnew,9.0.1*%
%TF.CreationDate,2026-04-05T05:19:01-05:00*%
%TF.ProjectId,Kaypro10VideoShim,4b617970-726f-4313-9056-6964656f5368,rev?*%
%TF.SameCoordinates,Original*%
%TF.FileFunction,Soldermask,Top*%
%TF.FilePolarity,Negative*%
%FSLAX46Y46*%
G04 Gerber Fmt 4.6, Leading zero omitted, Abs format (unit mm)*
G04 Created by KiCad (PCBNEW 9.0.1) date 2026-04-05 05:19:01*
%MOMM*%
%LPD*%
G01*
G04 APERTURE LIST*
G04 Aperture macros list*
%AMRoundRect*
0 Rectangle with rounded corners*
0 $1 Rounding radius*
0 $2 $3 $4 $5 $6 $7 $8 $9 X,Y pos of 4 corners*
0 Add a 4 corners polygon primitive as box body*
4,1,4,$2,$3,$4,$5,$6,$7,$8,$9,$2,$3,0*
0 Add four circle primitives for the rounded corners*
1,1,$1+$1,$2,$3*
1,1,$1+$1,$4,$5*
1,1,$1+$1,$6,$7*
1,1,$1+$1,$8,$9*
0 Add four rect primitives between the rounded corners*
20,1,$1+$1,$2,$3,$4,$5,0*
20,1,$1+$1,$4,$5,$6,$7,0*
20,1,$1+$1,$6,$7,$8,$9,0*
20,1,$1+$1,$8,$9,$2,$3,0*%
G04 Aperture macros list end*
%ADD10RoundRect,0.250000X0.550000X0.550000X-0.550000X0.550000X-0.550000X-0.550000X0.550000X-0.550000X0*%
%ADD11C,1.600000*%
%ADD12R,1.700000X1.700000*%
%ADD13C,1.700000*%
G04 APERTURE END LIST*
D10*
%TO.C,U2*%
X52100000Y-78200000D03*
D11*
X52100000Y-75660000D03*
X52100000Y-73120000D03*
X52100000Y-70580000D03*
X52100000Y-68040000D03*
X52100000Y-65500000D03*
X52100000Y-62960000D03*
X52100000Y-60420000D03*
X52100000Y-57880000D03*
X52100000Y-55340000D03*
X52100000Y-52800000D03*
X52100000Y-50260000D03*
X52100000Y-47720000D03*
X52100000Y-45180000D03*
X52100000Y-42640000D03*
X52100000Y-40100000D03*
X52100000Y-37560000D03*
X52100000Y-35020000D03*
X52100000Y-32480000D03*
X52100000Y-29940000D03*
X36860000Y-29940000D03*
X36860000Y-32480000D03*
X36860000Y-35020000D03*
X36860000Y-37560000D03*
X36860000Y-40100000D03*
X36860000Y-42640000D03*
X36860000Y-45180000D03*
X36860000Y-47720000D03*
X36860000Y-50260000D03*
X36860000Y-52800000D03*
X36860000Y-55340000D03*
X36860000Y-57880000D03*
X36860000Y-60420000D03*
X36860000Y-62960000D03*
X36860000Y-65500000D03*
X36860000Y-68040000D03*
X36860000Y-70580000D03*
X36860000Y-73120000D03*
X36860000Y-75660000D03*
X36860000Y-78200000D03*
%TD*%
D10*
%TO.C,U1*%
X54700000Y-78260000D03*
D11*
X54700000Y-75720000D03*
X54700000Y-73180000D03*
X54700000Y-70640000D03*
X54700000Y-68100000D03*
X54700000Y-65560000D03*
X54700000Y-63020000D03*
X54700000Y-60480000D03*
X54700000Y-57940000D03*
X54700000Y-55400000D03*
X54700000Y-52860000D03*
X54700000Y-50320000D03*
X54700000Y-47780000D03*
X54700000Y-45240000D03*
X54700000Y-42700000D03*
X54700000Y-40160000D03*
X54700000Y-37620000D03*
X54700000Y-35080000D03*
X54700000Y-32540000D03*
X54700000Y-30000000D03*
X39460000Y-30000000D03*
X39460000Y-32540000D03*
X39460000Y-35080000D03*
X39460000Y-37620000D03*
X39460000Y-40160000D03*
X39460000Y-42700000D03*
X39460000Y-45240000D03*
X39460000Y-47780000D03*
X39460000Y-50320000D03*
X39460000Y-52860000D03*
X39460000Y-55400000D03*
X39460000Y-57940000D03*
X39460000Y-60480000D03*
X39460000Y-63020000D03*
X39460000Y-65560000D03*
X39460000Y-68100000D03*
X39460000Y-70640000D03*
X39460000Y-73180000D03*
X39460000Y-75720000D03*
X39460000Y-78260000D03*
%TD*%
D12*
%TO.C,J1*%
X36310000Y-81715000D03*
D13*
X33770000Y-81715000D03*
X31230000Y-81715000D03*
X28690000Y-81715000D03*
%TD*%
M02*
