M48
; DRILL file {KiCad 9.0.1} date 2026-04-05T05:24:43-0500
; FORMAT={-:-/ absolute / metric / decimal}
; #@! TF.CreationDate,2026-04-05T05:24:43-05:00
; #@! TF.GenerationSoftware,Kicad,Pcbnew,9.0.1
; #@! TF.FileFunction,Plated,1,2,PTH
FMAT,2
METRIC
; #@! TA.AperFunction,Plated,PTH,ViaDrill
T1C0.300
; #@! TA.AperFunction,Plated,PTH,ComponentDrill
T2C0.800
; #@! TA.AperFunction,Plated,PTH,ComponentDrill
T3C1.000
%
G90
G05
T1
X47.664Y-32.23
X52.535Y-44.563
X55.751Y-41.158
X56.089Y-35.181
X87.4Y-85.0
X90.8Y-65.2
T2
X30.86Y-30.96
X30.86Y-33.5
X30.86Y-36.04
X30.86Y-38.58
X30.86Y-41.12
X30.86Y-43.66
X30.86Y-46.2
X30.86Y-48.74
X30.86Y-51.28
X30.86Y-53.82
X30.86Y-56.36
X30.86Y-58.9
X34.26Y-30.96
X34.26Y-33.5
X34.26Y-36.04
X34.26Y-38.58
X34.26Y-41.12
X34.26Y-43.66
X34.26Y-46.2
X34.26Y-48.74
X34.26Y-51.28
X34.26Y-53.82
X34.26Y-56.36
X34.26Y-58.9
X46.1Y-30.96
X46.1Y-33.5
X46.1Y-36.04
X46.1Y-38.58
X46.1Y-41.12
X46.1Y-43.66
X46.1Y-46.2
X46.1Y-48.74
X46.1Y-51.28
X46.1Y-53.82
X46.1Y-56.36
X46.1Y-58.9
X49.5Y-30.96
X49.5Y-33.5
X49.5Y-36.04
X49.5Y-38.58
X49.5Y-41.12
X49.5Y-43.66
X49.5Y-46.2
X49.5Y-48.74
X49.5Y-51.28
X49.5Y-53.82
X49.5Y-56.36
X49.5Y-58.9
X68.48Y-43.64
X68.48Y-46.18
X68.48Y-48.72
X68.48Y-51.26
X68.48Y-53.8
X68.48Y-56.34
X68.48Y-58.88
X68.48Y-61.42
X68.48Y-63.96
X68.48Y-66.5
X69.08Y-81.86
X69.08Y-84.4
X69.08Y-86.94
X69.08Y-89.48
X69.08Y-92.02
X69.08Y-94.56
X69.08Y-97.1
X69.08Y-99.64
X69.08Y-102.18
X69.08Y-104.72
X70.0Y-39.1
X73.1Y-76.8
X75.0Y-39.1
X76.1Y-43.64
X76.1Y-46.18
X76.1Y-48.72
X76.1Y-51.26
X76.1Y-53.8
X76.1Y-56.34
X76.1Y-58.88
X76.1Y-61.42
X76.1Y-63.96
X76.1Y-66.5
X76.7Y-81.86
X76.7Y-84.4
X76.7Y-86.94
X76.7Y-89.48
X76.7Y-92.02
X76.7Y-94.56
X76.7Y-97.1
X76.7Y-99.64
X76.7Y-102.18
X76.7Y-104.72
X78.1Y-76.8
T3
X62.02Y-33.8
X64.56Y-33.8
X67.1Y-33.8
X69.64Y-33.8
X83.71Y-27.407
X83.71Y-29.947
X83.71Y-32.487
X83.71Y-35.027
X83.71Y-37.567
X83.71Y-40.108
X83.71Y-42.648
X83.71Y-45.188
X83.71Y-47.727
X83.71Y-50.267
X83.71Y-52.807
X83.71Y-55.347
X83.71Y-57.887
X83.71Y-60.427
X83.71Y-62.967
X83.71Y-65.507
X83.71Y-68.047
X83.71Y-70.587
X83.71Y-73.127
X83.71Y-75.667
X95.215Y-84.925
X95.215Y-87.465
X95.54Y-95.56
X95.54Y-98.1
X95.54Y-100.64
X101.49Y-27.407
X101.49Y-29.947
X101.49Y-32.487
X101.49Y-35.027
X101.49Y-37.567
X101.49Y-40.108
X101.49Y-42.648
X101.49Y-45.188
X101.49Y-47.727
X101.49Y-50.267
X101.49Y-52.807
X101.49Y-55.347
X101.49Y-57.887
X101.49Y-60.427
X101.49Y-62.967
X101.49Y-65.507
X101.49Y-68.047
X101.49Y-70.587
X101.49Y-73.127
X101.49Y-75.667
M30
