%TF.GenerationSoftware,KiCad,Pcbnew,9.0.1*%
%TF.CreationDate,2026-04-05T05:24:38-05:00*%
%TF.ProjectId,Kaypro10Video,4b617970-726f-4313-9056-6964656f2e6b,rev?*%
%TF.SameCoordinates,Original*%
%TF.FileFunction,Soldermask,Bot*%
%TF.FilePolarity,Negative*%
%FSLAX46Y46*%
G04 Gerber Fmt 4.6, Leading zero omitted, Abs format (unit mm)*
G04 Created by KiCad (PCBNEW 9.0.1) date 2026-04-05 05:24:38*
%MOMM*%
%LPD*%
G01*
G04 APERTURE LIST*
G04 Aperture macros list*
%AMRoundRect*
0 Rectangle with rounded corners*
0 $1 Rounding radius*
0 $2 $3 $4 $5 $6 $7 $8 $9 X,Y pos of 4 corners*
0 Add a 4 corners polygon primitive as box body*
4,1,4,$2,$3,$4,$5,$6,$7,$8,$9,$2,$3,0*
0 Add four circle primitives for the rounded corners*
1,1,$1+$1,$2,$3*
1,1,$1+$1,$4,$5*
1,1,$1+$1,$6,$7*
1,1,$1+$1,$8,$9*
0 Add four rect primitives between the rounded corners*
20,1,$1+$1,$2,$3,$4,$5,0*
20,1,$1+$1,$4,$5,$6,$7,0*
20,1,$1+$1,$6,$7,$8,$9,0*
20,1,$1+$1,$8,$9,$2,$3,0*%
%AMFreePoly0*
4,1,37,0.603843,0.796157,0.639018,0.796157,0.711114,0.766294,0.766294,0.711114,0.796157,0.639018,0.796157,0.603843,0.800000,0.600000,0.800000,-0.600000,0.796157,-0.603843,0.796157,-0.639018,0.766294,-0.711114,0.711114,-0.766294,0.639018,-0.796157,0.603843,-0.796157,0.600000,-0.800000,0.000000,-0.800000,0.000000,-0.796148,-0.078414,-0.796148,-0.232228,-0.765552,-0.377117,-0.705537,
-0.507515,-0.618408,-0.618408,-0.507515,-0.705537,-0.377117,-0.765552,-0.232228,-0.796148,-0.078414,-0.796148,0.078414,-0.765552,0.232228,-0.705537,0.377117,-0.618408,0.507515,-0.507515,0.618408,-0.377117,0.705537,-0.232228,0.765552,-0.078414,0.796148,0.000000,0.796148,0.000000,0.800000,0.600000,0.800000,0.603843,0.796157,0.603843,0.796157,$1*%
%AMFreePoly1*
4,1,37,0.000000,0.796148,0.078414,0.796148,0.232228,0.765552,0.377117,0.705537,0.507515,0.618408,0.618408,0.507515,0.705537,0.377117,0.765552,0.232228,0.796148,0.078414,0.796148,-0.078414,0.765552,-0.232228,0.705537,-0.377117,0.618408,-0.507515,0.507515,-0.618408,0.377117,-0.705537,0.232228,-0.765552,0.078414,-0.796148,0.000000,-0.796148,0.000000,-0.800000,-0.600000,-0.800000,
-0.603843,-0.796157,-0.639018,-0.796157,-0.711114,-0.766294,-0.766294,-0.711114,-0.796157,-0.639018,-0.796157,-0.603843,-0.800000,-0.600000,-0.800000,0.600000,-0.796157,0.603843,-0.796157,0.639018,-0.766294,0.711114,-0.711114,0.766294,-0.639018,0.796157,-0.603843,0.796157,-0.600000,0.800000,0.000000,0.800000,0.000000,0.796148,0.000000,0.796148,$1*%
G04 Aperture macros list end*
%ADD10R,1.700000X1.700000*%
%ADD11C,1.700000*%
%ADD12RoundRect,0.250000X-0.550000X-0.550000X0.550000X-0.550000X0.550000X0.550000X-0.550000X0.550000X0*%
%ADD13C,1.600000*%
%ADD14RoundRect,0.250000X0.550000X0.550000X-0.550000X0.550000X-0.550000X-0.550000X0.550000X-0.550000X0*%
%ADD15C,2.200000*%
%ADD16C,1.850000*%
%ADD17RoundRect,0.200000X-0.600000X-0.600000X0.600000X-0.600000X0.600000X0.600000X-0.600000X0.600000X0*%
%ADD18FreePoly0,0.000000*%
%ADD19FreePoly1,0.000000*%
%ADD20R,1.600000X1.600000*%
%ADD21O,1.600000X1.600000*%
G04 APERTURE END LIST*
D10*
%TO.C,J3*%
X95215000Y-84925000D03*
D11*
X95215000Y-87465000D03*
%TD*%
D10*
%TO.C,J2*%
X62020000Y-33800000D03*
D11*
X64560000Y-33800000D03*
X67100000Y-33800000D03*
X69640000Y-33800000D03*
%TD*%
D10*
%TO.C,J1*%
X95540000Y-95560000D03*
D11*
X95540000Y-98100000D03*
X95540000Y-100640000D03*
%TD*%
D12*
%TO.C,U1*%
X68480000Y-43640000D03*
D13*
X68480000Y-46180000D03*
X68480000Y-48720000D03*
X68480000Y-51260000D03*
X68480000Y-53800000D03*
X68480000Y-56340000D03*
X68480000Y-58880000D03*
X68480000Y-61420000D03*
X68480000Y-63960000D03*
X68480000Y-66500000D03*
X76100000Y-66500000D03*
X76100000Y-63960000D03*
X76100000Y-61420000D03*
X76100000Y-58880000D03*
X76100000Y-56340000D03*
X76100000Y-53800000D03*
X76100000Y-51260000D03*
X76100000Y-48720000D03*
X76100000Y-46180000D03*
X76100000Y-43640000D03*
%TD*%
%TO.C,C1*%
X70000000Y-39100000D03*
X75000000Y-39100000D03*
%TD*%
D12*
%TO.C,U2*%
X69080000Y-81860000D03*
D13*
X69080000Y-84400000D03*
X69080000Y-86940000D03*
X69080000Y-89480000D03*
X69080000Y-92020000D03*
X69080000Y-94560000D03*
X69080000Y-97100000D03*
X69080000Y-99640000D03*
X69080000Y-102180000D03*
X69080000Y-104720000D03*
X76700000Y-104720000D03*
X76700000Y-102180000D03*
X76700000Y-99640000D03*
X76700000Y-97100000D03*
X76700000Y-94560000D03*
X76700000Y-92020000D03*
X76700000Y-89480000D03*
X76700000Y-86940000D03*
X76700000Y-84400000D03*
X76700000Y-81860000D03*
%TD*%
D14*
%TO.C,Header Pins1*%
X49500000Y-58900000D03*
D13*
X49500000Y-56360000D03*
X49500000Y-53820000D03*
X49500000Y-51280000D03*
X49500000Y-48740000D03*
X49500000Y-46200000D03*
X49500000Y-43660000D03*
X49500000Y-41120000D03*
X49500000Y-38580000D03*
X49500000Y-36040000D03*
X49500000Y-33500000D03*
X49500000Y-30960000D03*
X34260000Y-30960000D03*
X34260000Y-33500000D03*
X34260000Y-36040000D03*
X34260000Y-38580000D03*
X34260000Y-41120000D03*
X34260000Y-43660000D03*
X34260000Y-46200000D03*
X34260000Y-48740000D03*
X34260000Y-51280000D03*
X34260000Y-53820000D03*
X34260000Y-56360000D03*
X34260000Y-58900000D03*
%TD*%
%TO.C,C2*%
X73100000Y-76800000D03*
X78100000Y-76800000D03*
%TD*%
D15*
%TO.C,A1*%
X89875000Y-27537500D03*
D16*
X90175000Y-30567500D03*
X95025000Y-30567500D03*
D15*
X95325000Y-27537500D03*
D17*
X83710000Y-27407500D03*
D13*
X83710000Y-29947500D03*
D18*
X83710000Y-32487500D03*
D13*
X83710000Y-35027500D03*
X83710000Y-37567500D03*
X83710000Y-40107500D03*
X83710000Y-42647500D03*
D18*
X83710000Y-45187500D03*
D13*
X83710000Y-47727500D03*
X83710000Y-50267500D03*
X83710000Y-52807500D03*
X83710000Y-55347500D03*
D18*
X83710000Y-57887500D03*
D13*
X83710000Y-60427500D03*
X83710000Y-62967500D03*
X83710000Y-65507500D03*
X83710000Y-68047500D03*
D18*
X83710000Y-70587500D03*
D13*
X83710000Y-73127500D03*
X83710000Y-75667500D03*
X101490000Y-75667500D03*
X101490000Y-73127500D03*
D19*
X101490000Y-70587500D03*
D13*
X101490000Y-68047500D03*
X101490000Y-65507500D03*
X101490000Y-62967500D03*
X101490000Y-60427500D03*
D19*
X101490000Y-57887500D03*
D13*
X101490000Y-55347500D03*
X101490000Y-52807500D03*
X101490000Y-50267500D03*
X101490000Y-47727500D03*
D19*
X101490000Y-45187500D03*
D13*
X101490000Y-42647500D03*
X101490000Y-40107500D03*
X101490000Y-37567500D03*
X101490000Y-35027500D03*
D19*
X101490000Y-32487500D03*
D13*
X101490000Y-29947500D03*
X101490000Y-27407500D03*
%TD*%
D20*
%TO.C,U3*%
X46100000Y-58900000D03*
D21*
X46100000Y-56360000D03*
X46100000Y-53820000D03*
X46100000Y-51280000D03*
X46100000Y-48740000D03*
X46100000Y-46200000D03*
X46100000Y-43660000D03*
X46100000Y-41120000D03*
X46100000Y-38580000D03*
X46100000Y-36040000D03*
X46100000Y-33500000D03*
X46100000Y-30960000D03*
X30860000Y-30960000D03*
X30860000Y-33500000D03*
X30860000Y-36040000D03*
X30860000Y-38580000D03*
X30860000Y-41120000D03*
X30860000Y-43660000D03*
X30860000Y-46200000D03*
X30860000Y-48740000D03*
X30860000Y-51280000D03*
X30860000Y-53820000D03*
X30860000Y-56360000D03*
X30860000Y-58900000D03*
%TD*%
M02*
